<?xml version="1.0" standalone="no"?>
<!DOCTYPE svg PUBLIC "-//W3C//DTD SVG 20010904//EN"
 "http://www.w3.org/TR/2001/REC-SVG-20010904/DTD/svg10.dtd">
<svg version="1.0" xmlns="http://www.w3.org/2000/svg"
 width="4992.000000pt" height="4992.000000pt" viewBox="0 0 4992.000000 4992.000000"
 preserveAspectRatio="xMidYMid meet">
<metadata>
Created by potrace 1.14, written by Peter Selinger 2001-2017
</metadata>
<g transform="translate(0.000000,4992.000000) scale(0.100000,-0.100000)"
fill="#000000" stroke="none">
<path d="M2834 27388 c-188 -27 -338 -124 -644 -418 -48 -46 -248 -233 -310
-290 -19 -18 -91 -85 -160 -150 -137 -129 -145 -137 -310 -290 -120 -112 -125
-117 -330 -310 -73 -68 -146 -137 -164 -152 -17 -14 -71 -65 -120 -112 -48
-47 -89 -86 -91 -86 -2 0 -25 -21 -52 -47 -27 -27 -107 -102 -178 -168 -435
-406 -465 -449 -471 -675 -6 -221 26 -297 203 -481 40 -42 73 -76 73 -74 0 1
24 -21 54 -49 55 -53 104 -99 321 -301 71 -66 143 -133 161 -150 35 -33 234
-220 293 -275 21 -19 98 -91 171 -160 73 -69 167 -156 208 -195 41 -38 92 -86
112 -105 20 -19 83 -78 139 -130 57 -52 139 -129 182 -171 44 -41 79 -74 79
-73 0 2 24 -21 54 -49 342 -330 467 -432 605 -495 259 -119 508 -48 713 203
64 78 60 72 86 130 93 204 30 416 -192 644 -30 31 -105 103 -166 161 -62 58
-139 130 -170 160 -58 56 -352 336 -420 400 -20 19 -90 85 -155 145 -65 61
-130 121 -144 135 -45 41 -194 177 -221 200 -14 12 -41 36 -60 53 -20 18 -67
59 -105 91 -100 85 -208 195 -232 236 -39 65 -47 164 -16 201 6 8 14 24 18 37
7 25 126 149 224 232 105 91 306 272 426 385 12 11 72 67 134 125 62 58 144
134 181 170 37 36 130 124 206 195 75 72 158 150 183 174 25 24 91 85 145 135
177 163 252 242 304 319 31 46 69 116 70 127 0 3 6 18 12 34 43 115 26 265
-44 381 -36 59 -48 74 -101 129 -157 160 -326 229 -501 204z"/>
<path d="M25039 27384 c-35 -6 -75 -14 -88 -18 -56 -13 -140 -65 -196 -121
-82 -80 -130 -162 -180 -300 -10 -27 -23 -56 -28 -62 -5 -7 -7 -13 -4 -13 5 0
-26 -85 -53 -145 -5 -11 -20 -51 -35 -90 -14 -38 -34 -90 -45 -115 -10 -25
-37 -92 -60 -150 -22 -58 -45 -114 -50 -125 -26 -57 -44 -101 -45 -110 -3 -14
-13 -39 -46 -113 -16 -35 -29 -66 -29 -68 0 -6 -60 -152 -92 -224 -32 -71 -41
-94 -45 -114 -2 -11 -7 -24 -12 -30 -5 -6 -19 -36 -31 -66 -12 -30 -28 -68
-35 -85 -8 -16 -27 -64 -44 -105 -32 -83 -117 -294 -130 -325 -10 -22 -62
-174 -66 -190 -1 -5 -5 -17 -8 -25 -3 -8 -24 -64 -47 -125 -22 -60 -44 -119
-49 -130 -5 -11 -28 -69 -51 -130 -23 -60 -49 -128 -58 -150 -9 -21 -17 -42
-17 -45 -1 -6 -91 -239 -110 -285 -7 -16 -22 -55 -33 -85 -11 -30 -41 -109
-67 -175 -25 -66 -62 -160 -81 -210 -19 -49 -39 -98 -44 -107 -6 -10 -10 -23
-10 -29 0 -6 -6 -25 -14 -42 -8 -18 -38 -93 -66 -167 -28 -74 -58 -147 -66
-162 -8 -14 -14 -32 -14 -40 0 -8 -8 -32 -19 -54 -10 -21 -26 -60 -35 -86 -8
-26 -24 -66 -35 -90 -11 -24 -38 -95 -62 -158 -50 -137 -59 -218 -35 -301 15
-51 78 -149 95 -149 4 0 16 -8 27 -19 37 -34 180 -94 254 -107 8 -1 33 -5 55
-9 70 -12 188 -12 250 1 98 20 105 22 174 56 70 35 221 173 221 202 0 9 4 16
8 16 12 0 75 133 106 225 27 79 63 172 136 355 21 52 43 111 50 130 7 19 21
53 30 75 10 22 34 83 55 135 20 52 42 106 48 120 6 14 11 27 12 30 2 11 47
127 60 155 7 17 43 107 79 200 37 94 71 179 76 190 20 46 80 206 80 215 0 5 4
10 8 10 5 0 9 6 9 13 0 6 42 116 93 242 51 127 92 236 93 243 0 6 4 12 9 12 4
0 8 5 8 11 0 11 59 168 80 214 5 11 39 97 75 190 37 94 71 179 76 190 5 11 35
88 68 170 32 83 102 259 155 393 53 133 96 247 96 252 0 6 4 18 9 28 5 9 46
130 91 267 85 263 132 397 140 405 3 3 6 10 7 15 1 6 11 34 22 63 55 148 65
301 25 387 -28 63 -91 125 -164 164 -33 18 -60 30 -60 26 0 -3 -13 1 -30 10
-16 9 -30 13 -30 9 0 -4 -7 -1 -15 6 -8 7 -15 10 -15 7 0 -3 -17 -1 -37 4 -98
23 -211 28 -294 13z"/>
<path d="M46678 27383 c-123 -25 -223 -85 -340 -205 -57 -59 -87 -100 -119
-166 -40 -81 -43 -93 -46 -178 -3 -100 9 -151 54 -239 62 -120 160 -232 353
-407 44 -40 178 -167 440 -418 125 -120 236 -224 339 -320 62 -58 130 -121
151 -141 21 -19 69 -62 106 -95 37 -32 87 -77 112 -99 65 -58 81 -72 137 -118
69 -58 205 -196 205 -208 0 -6 8 -23 18 -37 23 -33 28 -109 11 -160 -12 -38
-69 -131 -80 -132 -3 0 -32 -26 -65 -58 -32 -32 -90 -84 -128 -117 -38 -33
-81 -71 -96 -85 -15 -14 -56 -50 -90 -80 -34 -30 -74 -66 -89 -80 -47 -43
-283 -263 -322 -300 -192 -181 -339 -321 -423 -401 -56 -53 -125 -118 -154
-145 -213 -195 -328 -315 -384 -399 -157 -238 -134 -456 69 -662 73 -74 123
-113 192 -148 107 -54 226 -74 321 -54 83 17 90 19 148 46 31 14 59 27 62 28
5 1 64 37 94 57 24 17 126 98 147 118 8 8 64 60 123 115 59 55 129 120 155
145 41 38 207 194 342 320 20 19 90 85 154 145 135 127 155 145 300 280 59 55
124 116 144 135 35 33 253 237 330 308 20 19 90 85 156 147 66 62 134 125 150
140 83 75 292 275 324 309 81 86 111 123 111 136 0 6 5 10 12 10 6 0 8 3 5 7
-4 3 0 14 8 23 36 40 53 130 50 265 -3 146 -7 170 -35 220 -11 19 -16 35 -12
35 4 0 2 4 -3 8 -6 4 -23 27 -39 52 -32 49 -152 171 -355 360 -74 69 -151 141
-171 160 -58 54 -166 155 -290 270 -62 58 -134 125 -160 150 -26 25 -96 91
-156 147 -60 56 -130 121 -155 145 -25 23 -102 95 -169 158 -68 63 -142 133
-165 155 -24 22 -93 87 -155 145 -62 58 -132 123 -155 145 -23 22 -88 83 -145
135 -56 52 -121 113 -144 135 -66 65 -162 142 -234 188 -161 104 -302 139
-444 110z"/>
<path d="M29247 26304 c-1 -1 -51 -5 -112 -9 -60 -3 -119 -8 -130 -9 -22 -3
-108 -16 -143 -21 -50 -8 -178 -37 -202 -46 -14 -5 -35 -11 -48 -14 -68 -13
-318 -108 -387 -147 -11 -6 -49 -27 -85 -46 -118 -64 -255 -160 -374 -262 -61
-52 -236 -235 -236 -246 0 -4 -22 -32 -45 -58 -9 -9 -97 -143 -132 -201 -26
-41 -112 -223 -137 -287 -32 -82 -93 -302 -97 -349 -2 -19 -5 -38 -8 -44 -3
-5 -6 -19 -7 -30 -1 -11 -4 -43 -8 -71 -25 -186 -21 -455 10 -643 9 -53 17
-105 18 -117 1 -11 5 -24 8 -30 3 -5 9 -27 13 -48 3 -22 25 -92 47 -155 22
-64 40 -122 40 -128 1 -7 5 -13 9 -13 4 0 11 -10 14 -22 19 -62 159 -312 212
-378 6 -8 33 -42 60 -75 60 -76 111 -132 192 -209 92 -88 93 -89 131 -116 19
-13 37 -27 40 -31 3 -3 42 -31 87 -62 161 -110 278 -168 498 -249 82 -31 292
-86 355 -94 19 -2 49 -7 65 -11 94 -20 222 -28 440 -28 233 1 369 11 505 40
14 3 36 7 50 10 14 3 36 7 50 10 14 3 36 8 49 11 80 17 312 103 424 158 124
61 298 168 305 187 2 5 8 9 14 9 28 0 348 309 348 336 0 7 -37 45 -82 86 -45
40 -93 84 -107 96 -25 23 -122 110 -240 217 -30 28 -73 67 -94 88 -21 20 -40
37 -43 37 -2 0 -12 8 -22 18 -81 77 -131 122 -136 122 -3 0 -47 -42 -98 -93
-89 -89 -208 -187 -227 -187 -5 0 -11 -3 -13 -7 -11 -27 -235 -127 -330 -149
-56 -13 -82 -17 -168 -30 -28 -4 -239 -3 -285 1 -33 3 -89 13 -167 30 -74 16
-271 95 -288 116 -3 3 -16 12 -30 19 -75 39 -204 156 -271 246 -24 32 -47 61
-51 62 -5 2 -8 9 -8 16 0 6 -11 27 -23 46 -40 59 -92 198 -113 300 -2 14 -7
32 -9 40 -2 8 -7 38 -11 65 -3 28 -8 59 -10 70 -14 71 0 362 21 435 2 8 7 29
9 45 16 93 82 250 149 353 108 167 219 266 422 374 53 28 202 76 290 93 94 18
307 24 400 11 105 -15 319 -76 335 -95 3 -3 30 -18 60 -32 111 -53 305 -211
379 -308 13 -17 27 -31 31 -31 4 0 23 15 42 33 19 17 57 52 84 76 27 24 89 80
138 125 49 44 98 89 110 99 11 10 55 49 96 87 41 38 84 77 96 87 137 118 173
156 161 168 -7 7 -30 34 -52 60 -41 48 -122 129 -185 184 -19 17 -42 37 -50
44 -8 7 -31 24 -50 37 -19 13 -37 27 -40 30 -20 21 -196 126 -280 167 -180 86
-402 160 -565 188 -22 4 -47 8 -55 10 -8 2 -40 6 -70 10 -30 4 -66 9 -80 11
-57 9 -396 24 -403 18z"/>
<path d="M33445 26302 c-1 -1 -38 -5 -81 -7 -44 -3 -90 -7 -104 -10 -14 -2
-50 -7 -80 -10 -30 -4 -73 -10 -95 -15 -22 -5 -53 -11 -70 -14 -16 -4 -64 -15
-105 -26 -41 -11 -84 -22 -95 -25 -18 -4 -137 -47 -220 -80 -85 -33 -327 -161
-333 -177 -2 -4 -8 -8 -13 -8 -11 0 -168 -115 -234 -171 -45 -39 -176 -169
-217 -217 -31 -36 -154 -202 -183 -247 -60 -95 -157 -293 -175 -357 -1 -4 -10
-31 -21 -60 -11 -29 -22 -60 -24 -68 -1 -8 -8 -35 -15 -60 -14 -53 -16 -62
-35 -160 -29 -152 -36 -243 -36 -425 1 -159 1 -163 27 -355 10 -75 30 -164 66
-285 20 -67 104 -279 118 -300 4 -5 24 -41 45 -80 21 -38 48 -84 61 -102 13
-17 24 -34 24 -37 0 -6 82 -114 140 -185 72 -88 218 -226 315 -299 6 -4 29
-22 51 -40 23 -17 46 -32 52 -32 6 0 12 -4 14 -8 7 -16 140 -93 269 -156 160
-77 348 -142 494 -172 39 -8 60 -12 85 -18 14 -3 41 -8 60 -11 19 -2 44 -7 56
-9 103 -21 538 -29 679 -13 39 5 84 10 100 12 17 2 57 8 90 15 33 6 69 13 80
15 11 2 30 6 43 9 12 3 30 8 40 10 35 9 128 35 172 49 112 35 354 145 445 202
92 57 195 127 205 140 7 8 17 15 22 15 13 0 62 45 188 171 122 123 148 151
180 199 13 19 27 37 31 40 12 9 119 180 119 190 0 5 4 10 9 10 7 0 19 28 19
47 0 3 4 9 9 12 24 17 139 299 157 384 3 12 12 51 21 87 24 94 32 138 40 220
3 25 7 68 11 95 11 99 6 375 -10 478 -3 20 -8 52 -11 70 -7 49 -15 89 -21 117
-3 14 -8 36 -10 50 -3 14 -7 32 -11 40 -3 8 -8 24 -10 35 -5 26 -41 132 -58
170 -7 17 -15 36 -17 44 -2 8 -28 65 -59 127 -134 267 -318 499 -534 673 -38
31 -72 58 -75 61 -3 3 -12 10 -21 15 -9 6 -49 32 -90 59 -108 72 -297 168
-433 221 -65 25 -125 47 -135 48 -9 1 -22 6 -28 10 -7 5 -17 6 -21 3 -5 -3
-20 1 -35 9 -15 8 -27 12 -27 10 0 -2 -15 1 -32 6 -18 5 -44 11 -58 14 -14 3
-36 7 -50 10 -63 12 -78 15 -120 21 -128 19 -523 38 -535 26z m291 -966 c85
-14 101 -17 154 -32 228 -63 445 -213 568 -394 20 -30 40 -56 45 -58 4 -2 7
-8 7 -12 0 -5 13 -31 29 -59 33 -56 97 -220 106 -272 3 -19 10 -50 15 -69 29
-117 31 -348 4 -510 -8 -53 -44 -189 -54 -208 -4 -9 -18 -42 -30 -72 -12 -30
-35 -76 -51 -101 -16 -25 -29 -51 -29 -57 0 -7 -4 -12 -8 -12 -4 0 -15 -12
-24 -27 -9 -16 -31 -44 -48 -63 -18 -19 -44 -49 -59 -66 -33 -37 -135 -117
-206 -162 -101 -63 -271 -125 -380 -138 -11 -1 -36 -5 -55 -9 -55 -9 -283 -5
-310 5 -3 1 -9 2 -13 1 -12 -2 -133 28 -187 46 -49 17 -188 81 -205 95 -5 5
-31 22 -57 39 -25 16 -64 46 -85 65 -21 20 -51 48 -68 63 -16 15 -47 49 -67
76 -21 28 -41 55 -45 60 -83 107 -166 321 -189 485 -26 184 -21 376 12 519 9
36 17 73 19 81 13 65 100 249 157 334 20 31 126 154 148 173 14 12 39 34 55
49 83 73 286 178 385 199 8 2 35 8 60 14 25 5 74 13 110 17 36 3 66 7 68 9 5
4 189 -3 228 -9z"/>
<path d="M4717 26222 c-11 -2 -17 -14 -18 -30 -4 -160 0 -875 6 -880 3 -4 280
-8 613 -8 334 -1 614 -2 622 -3 13 -1 15 -184 15 -1584 l0 -1582 578 -3 577
-2 0 27 c1 16 2 730 3 1588 l2 1560 624 0 624 0 1 454 c1 358 -2 455 -12 458
-14 6 -3608 10 -3635 5z"/>
<path d="M9938 26222 c-32 -3 -39 -8 -57 -47 -12 -25 -21 -47 -21 -49 0 -3
-18 -44 -41 -93 -23 -48 -42 -92 -44 -98 -2 -11 -31 -75 -73 -165 -14 -30 -26
-57 -27 -60 -8 -22 -75 -176 -115 -265 -11 -22 -38 -83 -61 -135 -23 -52 -49
-111 -57 -130 -9 -19 -16 -37 -17 -40 -1 -3 -8 -18 -15 -35 -7 -16 -13 -33
-12 -37 1 -5 -2 -8 -7 -8 -5 0 -12 -12 -15 -26 -4 -14 -18 -49 -31 -77 -14
-28 -25 -57 -25 -64 0 -7 -4 -13 -10 -13 -5 0 -10 -6 -10 -14 0 -8 -17 -52
-39 -98 -21 -45 -51 -111 -65 -145 -14 -35 -37 -86 -50 -115 -13 -29 -39 -89
-59 -133 -31 -73 -65 -147 -102 -231 -12 -26 -67 -151 -98 -224 -5 -14 -10
-28 -9 -32 1 -5 -2 -8 -8 -8 -5 0 -10 -5 -10 -11 0 -10 -11 -35 -60 -144 -13
-27 -24 -52 -25 -55 -6 -17 -30 -73 -55 -128 -17 -35 -30 -65 -30 -67 0 -2
-13 -32 -29 -67 -16 -35 -64 -142 -106 -238 -42 -96 -85 -194 -96 -217 -10
-23 -68 -155 -129 -294 -61 -139 -114 -258 -118 -264 -3 -5 -7 -14 -8 -20 -1
-5 -25 -61 -53 -122 -28 -62 -51 -115 -51 -118 0 -3 263 -5 584 -5 455 0 586
3 594 13 5 6 37 82 71 167 34 85 69 171 77 190 28 63 32 74 102 250 l71 175
865 0 c697 1 866 -2 866 -12 0 -7 5 -13 11 -13 5 0 8 -4 5 -8 -2 -4 2 -21 9
-37 12 -26 35 -79 40 -95 1 -3 6 -16 12 -30 48 -111 175 -435 172 -435 -1 0 4
-11 12 -25 7 -14 23 -50 35 -80 l21 -55 601 -3 c331 -1 602 0 602 2 0 6 -29
75 -57 136 -14 30 -33 73 -43 95 -10 22 -32 71 -49 108 -17 37 -31 70 -31 73
0 3 -16 40 -36 81 -31 66 -54 117 -59 133 -1 3 -12 27 -24 55 -12 27 -29 66
-38 85 -8 19 -26 60 -41 90 -14 30 -25 61 -25 68 0 6 -4 12 -8 12 -4 0 -11 10
-14 23 -4 12 -18 46 -31 75 -13 29 -24 55 -24 57 0 3 -13 33 -30 67 -16 34
-30 67 -30 75 0 7 -4 13 -10 13 -5 0 -10 6 -10 14 0 7 -24 67 -54 132 -29 65
-102 229 -161 363 -59 134 -114 256 -121 270 -8 14 -14 29 -14 33 0 3 -16 41
-36 85 -20 43 -42 92 -49 108 -7 17 -23 53 -35 80 -12 28 -29 66 -37 85 -9 19
-24 53 -34 76 -11 22 -19 46 -19 52 0 7 -4 12 -10 12 -5 0 -10 7 -10 15 0 8
-4 23 -10 33 -5 9 -45 98 -89 198 -74 170 -90 205 -142 322 -12 26 -39 88 -61
137 -21 50 -43 99 -48 110 -63 137 -83 183 -105 234 -14 33 -36 84 -49 113
-13 29 -33 74 -45 101 -11 26 -31 68 -42 95 -12 26 -32 71 -45 100 -13 29 -24
57 -24 62 0 6 -6 10 -12 11 -54 2 -1071 3 -1100 1z m568 -1234 c8 -14 14 -31
14 -38 0 -6 9 -30 19 -53 30 -66 52 -121 56 -137 2 -8 26 -69 53 -135 54 -131
64 -157 67 -165 1 -3 6 -16 12 -30 6 -14 25 -61 42 -105 17 -44 36 -89 41
-100 5 -11 43 -105 85 -210 41 -104 79 -198 85 -207 6 -10 6 -19 0 -23 -5 -3
-240 -6 -522 -6 -421 0 -512 2 -510 13 4 17 60 167 72 193 11 22 293 725 320
795 17 45 83 207 99 245 5 11 12 29 16 40 6 18 9 16 22 -15 9 -19 22 -47 29
-62z"/>
<path d="M13063 26222 l-33 -3 0 -457 0 -457 991 0 c545 0 995 -3 1000 -6 5
-3 -2 -18 -16 -33 -14 -15 -25 -31 -25 -36 0 -4 -3 -10 -8 -12 -4 -1 -28 -28
-52 -58 -25 -30 -48 -57 -51 -60 -3 -3 -30 -34 -60 -70 -29 -36 -63 -76 -75
-90 -12 -14 -54 -63 -93 -110 -40 -47 -80 -94 -90 -105 -9 -11 -76 -90 -147
-175 -127 -152 -169 -202 -189 -224 -6 -6 -42 -49 -80 -96 -38 -47 -80 -95
-92 -107 -13 -12 -23 -26 -23 -30 0 -5 -8 -16 -17 -24 -10 -9 -38 -40 -63 -69
-25 -30 -62 -75 -83 -100 -21 -25 -56 -65 -77 -90 -21 -25 -49 -58 -62 -75
-13 -16 -30 -37 -38 -45 -8 -9 -33 -38 -55 -65 -22 -26 -50 -60 -62 -74 -13
-14 -31 -36 -40 -47 -10 -12 -34 -40 -53 -63 -19 -23 -42 -50 -50 -60 -8 -10
-34 -40 -57 -67 -23 -27 -97 -114 -164 -194 -67 -80 -142 -169 -168 -198 -25
-29 -48 -63 -51 -75 -4 -17 -5 -650 -1 -705 1 -10 370 -12 1831 -12 l1830 0 1
28 c1 15 2 36 3 47 0 11 -2 30 -6 43 -4 12 -4 22 0 22 6 0 7 94 1 110 -1 3 0
10 1 15 6 24 5 72 -2 93 -4 12 -4 22 0 22 8 0 7 83 -2 105 -3 8 -2 15 2 15 4
0 7 25 7 55 0 30 -3 55 -7 55 -4 0 -5 6 -2 13 9 24 10 98 2 103 -5 3 -5 10 -2
16 10 15 11 69 2 96 -4 12 -4 22 1 22 4 0 6 13 3 30 -2 16 -7 29 -11 28 -3 0
-486 0 -1074 1 l-1067 1 24 28 c13 15 43 50 66 77 23 28 52 61 64 75 12 14 55
66 96 115 41 50 85 100 97 112 13 12 23 25 23 28 0 4 6 12 13 19 6 7 28 32 47
55 19 23 44 52 55 65 11 12 38 44 60 70 22 27 48 58 58 70 11 11 35 41 55 65
21 24 104 123 185 220 82 97 156 185 165 196 66 79 122 145 150 176 19 21 44
52 58 70 13 18 27 35 31 38 5 3 24 26 44 51 20 25 45 55 55 66 11 12 37 43 59
70 51 61 163 194 221 261 25 29 64 76 87 105 23 29 53 64 66 78 13 14 40 45
60 70 20 25 41 51 48 58 7 7 29 34 50 60 21 26 43 52 49 57 6 6 26 30 45 55
l34 45 -1 330 c-1 182 -2 344 -3 360 l-1 30 -1727 0 c-951 0 -1743 -1 -1760
-3z"/>
<path d="M18486 26220 c-24 -4 -33 -19 -76 -117 -27 -62 -61 -138 -76 -170
-24 -54 -45 -101 -49 -113 -4 -11 -24 -58 -55 -125 -17 -38 -38 -86 -47 -105
-8 -19 -23 -53 -33 -75 -10 -22 -33 -74 -50 -115 -31 -71 -48 -108 -105 -235
-14 -31 -36 -83 -50 -116 -14 -33 -38 -88 -54 -122 -16 -34 -59 -132 -96 -217
-37 -85 -81 -183 -96 -218 -16 -34 -29 -64 -29 -66 0 -2 -16 -39 -36 -83 -20
-43 -45 -98 -56 -123 -11 -25 -26 -58 -33 -75 -86 -191 -112 -255 -107 -259 3
-3 0 -6 -6 -6 -6 0 -13 -13 -17 -30 -4 -16 -11 -30 -17 -30 -6 0 -9 -3 -6 -6
6 -5 -16 -59 -70 -174 -14 -30 -26 -57 -27 -60 -1 -3 -11 -27 -23 -53 -12 -27
-22 -54 -22 -61 0 -7 -6 -18 -12 -24 -7 -7 -13 -16 -14 -20 -1 -9 -15 -42 -53
-125 -17 -37 -31 -69 -31 -72 0 -2 -16 -39 -36 -82 -35 -75 -56 -122 -59 -133
-1 -3 -16 -36 -33 -74 -18 -38 -32 -75 -32 -82 0 -8 -4 -14 -10 -14 -5 0 -10
-5 -10 -11 0 -9 -20 -59 -50 -124 -64 -138 -117 -265 -112 -269 3 -3 1 -6 -5
-6 -9 0 -18 -20 -22 -45 0 -3 -8 -20 -18 -38 -9 -17 -18 -34 -18 -37 -3 -8
-35 -82 -56 -126 -10 -22 -19 -43 -19 -47 0 -3 266 -7 590 -7 521 0 590 1 590
15 0 8 5 15 12 15 6 0 9 3 6 6 -4 3 5 30 18 60 13 30 21 54 17 54 -3 0 1 8 9
18 9 9 23 42 33 72 10 30 23 66 31 80 7 14 20 45 29 70 10 25 22 56 28 70 6
14 11 27 12 30 1 3 6 16 12 30 6 14 25 61 43 105 18 44 37 91 43 105 6 14 11
27 12 30 13 37 -21 36 875 35 560 0 862 -3 868 -10 10 -12 62 -133 67 -156 2
-9 12 -36 23 -60 11 -24 43 -102 72 -174 28 -71 58 -143 65 -160 7 -16 31 -75
53 -130 l41 -100 600 -3 c331 -1 601 0 601 2 0 6 -40 100 -61 139 -10 22 -19
45 -19 53 0 8 -4 14 -10 14 -5 0 -9 3 -8 8 2 9 -10 42 -23 62 -5 8 -12 22 -15
30 -14 35 -58 139 -79 185 -29 65 -50 112 -120 270 -31 72 -66 150 -77 175
-36 81 -60 134 -73 165 -7 17 -25 57 -40 90 -31 67 -35 78 -100 225 -26 58
-53 119 -60 135 -8 17 -77 174 -155 350 -77 176 -146 331 -152 345 -6 14 -12
27 -13 30 -1 3 -9 21 -18 40 -17 38 -54 119 -97 215 -15 33 -27 62 -28 65 0 3
-15 37 -32 75 -18 39 -48 106 -67 150 -42 96 -61 138 -102 228 -17 37 -31 69
-31 71 0 4 -22 54 -82 186 -11 25 -54 122 -95 215 -41 94 -86 195 -100 225
-14 30 -31 69 -38 85 -18 42 -53 121 -81 183 -13 29 -24 57 -24 62 0 6 -8 10
-17 11 -107 3 -1086 3 -1107 -1z m574 -1223 c0 -4 8 -27 19 -50 10 -23 40 -96
66 -162 26 -66 51 -129 56 -140 8 -19 30 -74 34 -85 1 -3 7 -18 14 -35 7 -16
14 -36 15 -43 1 -7 8 -18 14 -24 7 -7 12 -17 12 -23 0 -6 58 -156 129 -333
l129 -322 -71 0 c-342 -2 -970 0 -973 3 -4 4 8 36 41 112 13 30 448 1117 467
1165 9 25 10 25 28 -15 11 -22 19 -44 20 -48z"/>
<path d="M36498 26222 l-38 -3 0 -322 c-1 -301 -1 -3390 0 -3650 l0 -118 1088
4 c598 2 1112 7 1142 10 30 4 75 9 100 11 25 3 56 7 70 10 14 3 42 7 63 10 21
4 79 15 130 27 124 27 119 26 147 37 14 5 30 10 35 11 11 1 100 29 125 38 8 4
17 7 20 8 32 11 76 29 132 54 27 12 50 21 53 21 2 1 32 16 66 35 33 19 64 35
68 35 12 0 227 145 284 191 158 128 353 358 443 524 21 39 43 73 48 77 6 4 8
8 4 8 -4 0 6 26 21 58 26 52 88 215 96 252 2 8 10 42 18 75 16 58 18 72 31
145 3 19 8 49 11 65 13 69 19 190 19 350 0 191 -5 254 -36 440 0 6 -5 26 -10
45 -5 19 -11 46 -14 60 -16 77 -70 229 -121 338 -127 279 -356 553 -603 722
-19 13 -37 27 -40 30 -8 9 -44 29 -70 41 -13 5 -27 14 -30 18 -12 20 -266 142
-365 175 -27 10 -59 21 -70 26 -60 26 -274 80 -370 95 -16 2 -57 9 -90 14 -62
11 -114 16 -275 27 -94 6 -2010 12 -2082 6z m2057 -935 c17 -3 39 -8 50 -10
11 -3 40 -8 65 -12 172 -28 386 -139 520 -269 89 -86 200 -234 200 -268 0 -8
4 -18 10 -24 17 -17 62 -149 82 -244 23 -108 33 -380 17 -465 -5 -27 -12 -68
-14 -89 -9 -68 -45 -177 -91 -272 -68 -144 -196 -290 -334 -384 -83 -56 -237
-127 -316 -145 -10 -2 -37 -9 -59 -15 -22 -6 -56 -12 -75 -15 -19 -2 -51 -7
-70 -11 -41 -8 -907 -12 -918 -4 -4 3 -7 508 -7 1122 l0 1117 455 -4 c250 -2
469 -5 485 -8z"/>
<path d="M41296 26214 c-8 -7 -11 -611 -10 -2045 l0 -2034 1642 -3 1642 -2 0
92 c1 106 1 677 0 753 l0 50 -1067 0 -1068 0 -2 370 c0 203 2 372 7 375 4 3
414 5 909 4 l901 0 0 432 0 431 -165 -1 c-91 0 -165 3 -165 7 0 5 -5 5 -12 1
-17 -11 -198 -11 -198 0 0 5 -6 4 -12 -1 -7 -4 -87 -7 -178 -6 -196 3 -166 3
-365 0 -88 -2 -166 1 -172 6 -7 5 -13 6 -13 1 0 -11 -181 -11 -198 0 -7 4 -12
4 -12 -1 0 -6 -275 -9 -321 -4 -3 1 -6 155 -5 344 l1 342 1010 2 c556 1 1019
2 1030 2 20 1 20 8 20 446 0 439 0 445 -20 446 -11 0 -728 1 -1594 2 -1109 1
-1578 -1 -1585 -9z"/>
</g>
</svg>
