<svg width="156" height="19" viewBox="0 0 156 19" fill="none" xmlns="http://www.w3.org/2000/svg">
<path d="M0.0127704 10.4502C-0.0826371 9.74259 0.372383 9.28227 0.849421 8.82883C2.99976 6.81583 5.15744 4.80283 7.30778 2.78296C8.22515 1.92416 9.25996 1.46385 10.3241 2.45317C11.3516 3.40815 11.0287 4.3906 10.0599 5.27688C8.54073 6.67842 7.08761 8.13493 5.51705 9.48839C4.70976 10.1823 4.59967 10.6151 5.48035 11.3571C7.05825 12.6968 8.51138 14.1602 10.0232 15.5686C10.9553 16.4343 11.3663 17.403 10.3388 18.3992C9.28198 19.4229 8.25451 18.9763 7.32979 18.1175C5.17945 16.1045 3.02178 14.0846 0.871437 12.0716C0.394399 11.6251 -0.0679591 11.1647 0.0127704 10.4502Z" fill="#DF0606"/>
<path d="M155.205 10.434C155.3 11.1417 154.845 11.602 154.368 12.0554C152.218 14.0685 150.06 16.0814 147.91 18.1013C146.992 18.9601 145.958 19.4204 144.893 18.4311C143.866 17.4761 144.189 16.4937 145.158 15.6074C146.677 14.2059 148.13 12.7493 149.7 11.3959C150.508 10.702 150.618 10.2692 149.737 9.52716C148.159 8.18745 146.706 6.72408 145.194 5.31566C144.262 4.45 143.851 3.48128 144.879 2.48508C145.936 1.4614 146.963 1.90797 147.888 2.76676C150.038 4.77977 152.196 6.79965 154.346 8.81265C154.823 9.25922 155.285 9.71953 155.205 10.434Z" fill="#DF0606"/>
<path d="M18.6081 8.42468H14.6821V5.55772H26.1316V8.42468H22.2238V18.3403H18.6081V8.42468ZM35.401 15.8569H29.9958L28.9914 18.3403H25.3027L30.9454 5.55772H34.5062L40.1671 18.3403H36.4054L35.401 15.8569ZM34.3419 13.1908L32.6984 9.10033L31.0549 13.1908H34.3419ZM52.0026 15.4734V18.3403H40.553V16.076L46.9991 8.42468H40.7173V5.55772H51.7286V7.82207L45.2826 15.4734H52.0026ZM62.1503 15.8569H56.7451L55.7408 18.3403H52.0521L57.6947 5.55772H61.2555L66.9164 18.3403H63.1547L62.1503 15.8569ZM61.0912 13.1908L59.4477 9.10033L57.8042 13.1908H61.0912Z" fill="white"/>
<path d="M74.3653 9.29812C75.1891 7.27368 76.0674 5.25947 76.8231 3.21969C77.1635 2.29438 77.8308 1.71158 79.0835 1.94675C80.5337 2.21769 80.4997 3.08677 80.1388 4.00186C79.8188 4.80959 79.5737 5.63265 79.3014 6.45061C77.9193 9.93203 76.5372 13.4135 75.1619 16.8949C75.0189 17.2578 74.9236 17.6413 74.7261 17.9889C74.304 18.7404 73.521 19.1596 72.4453 18.9244C71.356 18.6841 71.0087 18.0553 71.3355 17.2221C72.2274 14.9522 73.0989 12.6824 73.9772 10.4075C74.1202 10.0394 74.2359 9.6662 74.3653 9.29812Z" fill="white"/>
<path d="M91.6513 18.596C90.3122 18.596 89.107 18.316 88.0357 17.756C86.9765 17.1838 86.1426 16.3925 85.5339 15.3821C84.9252 14.3716 84.6209 13.2273 84.6209 11.949C84.6209 10.6708 84.9252 9.52642 85.5339 8.51598C86.1426 7.50555 86.9765 6.72033 88.0357 6.16033C89.107 5.58816 90.3122 5.30207 91.6513 5.30207C92.82 5.30207 93.873 5.50903 94.8104 5.92294C95.7478 6.33685 96.527 6.93338 97.1478 7.71251L94.847 9.79425C94.0191 8.79598 93.0148 8.29685 91.8339 8.29685C91.14 8.29685 90.5191 8.44903 89.9713 8.75338C89.4357 9.05772 89.0157 9.4899 88.7113 10.0499C88.4191 10.5977 88.273 11.2308 88.273 11.949C88.273 12.6673 88.4191 13.3064 88.7113 13.8664C89.0157 14.4142 89.4357 14.8403 89.9713 15.1447C90.5191 15.449 91.14 15.6012 91.8339 15.6012C93.0148 15.6012 94.0191 15.1021 94.847 14.1038L97.1478 16.1855C96.527 16.9647 95.7478 17.5612 94.8104 17.9751C93.873 18.389 92.82 18.596 91.6513 18.596ZM104.939 18.596C103.587 18.596 102.37 18.3099 101.286 17.7377C100.215 17.1655 99.3689 16.3742 98.7481 15.3638C98.1394 14.3534 97.835 13.2151 97.835 11.949C97.835 10.6829 98.1394 9.54468 98.7481 8.53425C99.3689 7.52381 100.215 6.73251 101.286 6.16033C102.37 5.58816 103.587 5.30207 104.939 5.30207C106.29 5.30207 107.501 5.58816 108.572 6.16033C109.656 6.73251 110.502 7.52381 111.111 8.53425C111.732 9.54468 112.042 10.6829 112.042 11.949C112.042 13.2151 111.732 14.3534 111.111 15.3638C110.502 16.3742 109.656 17.1655 108.572 17.7377C107.501 18.3099 106.29 18.596 104.939 18.596ZM104.939 15.6012C105.584 15.6012 106.168 15.449 106.692 15.1447C107.215 14.8403 107.629 14.4142 107.933 13.8664C108.238 13.3064 108.39 12.6673 108.39 11.949C108.39 11.2308 108.238 10.5977 107.933 10.0499C107.629 9.4899 107.215 9.05772 106.692 8.75338C106.168 8.44903 105.584 8.29685 104.939 8.29685C104.293 8.29685 103.709 8.44903 103.185 8.75338C102.662 9.05772 102.248 9.4899 101.944 10.0499C101.639 10.5977 101.487 11.2308 101.487 11.949C101.487 12.6673 101.639 13.3064 101.944 13.8664C102.248 14.4142 102.662 14.8403 103.185 15.1447C103.709 15.449 104.293 15.6012 104.939 15.6012ZM113.936 5.55772H119.98C121.38 5.55772 122.622 5.81946 123.705 6.34294C124.789 6.86642 125.629 7.60903 126.225 8.57077C126.822 9.53251 127.12 10.6586 127.12 11.949C127.12 13.2395 126.822 14.3655 126.225 15.3273C125.629 16.289 124.789 17.0316 123.705 17.5551C122.622 18.0786 121.38 18.3403 119.98 18.3403H113.936V5.55772ZM119.834 15.4551C120.93 15.4551 121.806 15.1447 122.464 14.5238C123.133 13.9029 123.468 13.0447 123.468 11.949C123.468 10.8534 123.133 9.99511 122.464 9.37425C121.806 8.75338 120.93 8.44294 119.834 8.44294H117.551V15.4551H119.834ZM139.285 15.5464V18.3403H129.022V5.55772H139.048V8.35164H132.601V10.5064H138.281V13.209H132.601V15.5464H139.285Z" fill="#DF0606"/>
</svg>
