<svg width="644" height="1037" viewBox="0 0 644 1037" fill="none" xmlns="http://www.w3.org/2000/svg">
<path d="M423.671 927.904L419.448 776.836M419.448 776.836L488.163 662.988L572.307 798.586L596.223 725.924L609.19 674.532L637.693 611.395L681.409 551.689L773.622 523.64L800.219 413.634L834.086 416.852L676.442 390.057L529.197 456.425L422.581 584.141L343.598 692.012L406.613 915.414L419.448 776.836Z" stroke="white" stroke-opacity="0.2" stroke-width="3"/>
<path d="M419.09 745.746L263.603 787.582L195.06 591.73L219.712 474.906L284.924 370.054L417.272 230.351L475.509 232.915L692.279 242.116L680.468 545.605L494.946 657.935L466.896 565.721L429.104 588.916L419.09 745.746Z" stroke="white" stroke-opacity="0.2" stroke-width="3"/>
<path d="M338.151 694.189L205.626 775.188L183.861 591.237L224.694 475.471L339.11 680.248L457.639 387.845L671.374 544.342L338.151 694.189Z" stroke="white" stroke-opacity="0.2" stroke-width="3"/>
<path d="M210.448 469.665L423.332 378.911L419.816 235.297L471.504 241.543L655.581 209.08L780.488 450.054L642.903 469.546L467.389 554.522L447.917 396.912L282.451 371.326L300.345 564.774L199.369 587.949L209.192 760.844L333.771 648.593L363.231 885.191L414.852 755.744L437.438 783.843M437.438 783.843L585.364 462.869L763.48 279.605L794.035 459.973L695.083 507.751L691.557 623.089L508.448 653.178L529.946 792.232L437.438 783.843Z" stroke="white" stroke-opacity="0.2" stroke-width="3"/>
<path d="M262.635 789.956L304.825 564.972M304.825 564.972L446.708 389.09L476.118 242.61L656.008 289.547L631.103 470.925L467.362 562.979L304.825 564.972Z" stroke="white" stroke-opacity="0.2" stroke-width="3"/>
<circle cx="218.941" cy="472.801" r="17.4115" transform="rotate(-143.789 218.941 472.801)" fill="#FD7D7D"/>
<circle cx="304.592" cy="566.343" r="14.9242" transform="rotate(-143.789 304.592 566.343)" fill="#FD7D7D"/>
<circle cx="206.594" cy="772.814" r="11.815" transform="rotate(-143.789 206.594 772.814)" fill="#FD7D7D"/>
<circle cx="343.733" cy="692.881" r="23.0081" transform="rotate(-143.789 343.733 692.881)" fill="#FD7D7D"/>
<circle cx="191.413" cy="588.29" r="17.4115" transform="rotate(-143.789 191.413 588.29)" fill="#FD7D7D"/>
<circle cx="262.967" cy="786.345" r="16.7897" transform="rotate(-143.789 262.967 786.345)" fill="#FD7D7D"/>
<circle cx="421.727" cy="921.086" r="14.3023" transform="rotate(-143.789 421.727 921.086)" fill="#FD7D7D"/>
<circle cx="441.085" cy="787.283" r="11.815" transform="rotate(-143.789 441.085 787.283)" fill="#FD7D7D"/>
<circle cx="421.195" cy="744.975" r="10.5713" transform="rotate(-143.789 421.195 744.975)" fill="#FD7D7D"/>
<circle cx="283.454" cy="372.061" r="13.6805" transform="rotate(-143.789 283.454 372.061)" fill="#FD7D7D"/>
<circle cx="421.791" cy="374.7" r="18.6552" transform="rotate(-143.789 421.791 374.7)" fill="#FD7D7D"/>
<circle cx="419.145" cy="230.951" r="18.6552" transform="rotate(-143.789 419.145 230.951)" fill="#FD7D7D"/>
<circle cx="476.718" cy="240.737" r="12.4368" transform="rotate(-143.789 476.718 240.737)" fill="#FD7D7D"/>
<circle cx="450.382" cy="393.382" r="12.4368" transform="rotate(-143.789 450.382 393.382)" fill="#FD7D7D"/>
<circle cx="656.609" cy="287.674" r="13.6805" transform="rotate(-143.789 656.609 287.674)" fill="#FD7D7D"/>
<circle cx="646.326" cy="215.405" r="22.3863" transform="rotate(-143.789 646.326 215.405)" fill="#FD7D7D"/>
<circle cx="632.071" cy="468.551" r="11.1931" transform="rotate(-143.789 632.071 468.551)" fill="#FD7D7D"/>
<circle cx="535.576" cy="448.764" r="11.1931" transform="rotate(-143.789 535.576 448.764)" fill="#FD7D7D"/>
<circle cx="466.126" cy="563.616" r="15.546" transform="rotate(-143.789 466.126 563.616)" fill="#FD7D7D"/>
<circle cx="335.402" cy="638.997" r="15.546" transform="rotate(-143.789 335.402 638.997)" fill="#FD7D7D"/>
<circle cx="611.429" cy="674.631" r="11.815" transform="rotate(-143.789 611.429 674.631)" fill="#FD7D7D"/>
</svg>
