<svg width="17" height="18" viewBox="0 0 17 18" fill="none" xmlns="http://www.w3.org/2000/svg">
<path d="M15.1916 17.3039L9.47661 11.5879C8.2504 12.4597 6.74143 12.8389 5.24875 12.6506C3.75608 12.4622 2.38865 11.7199 1.41748 10.5708C0.446306 9.42175 -0.0577304 7.94974 0.00526641 6.44655C0.0682632 4.94336 0.693695 3.51869 1.75761 2.4549C2.82123 1.39065 4.2459 0.764868 5.7492 0.7016C7.2525 0.638332 8.72471 1.14219 9.874 2.11331C11.0233 3.08443 11.7658 4.45191 11.9542 5.94469C12.1427 7.43748 11.7634 8.94659 10.8916 10.1729L16.6066 15.8889L15.1926 17.3029L15.1916 17.3039ZM5.99961 2.6969C5.07967 2.69668 4.18777 3.01357 3.47419 3.59416C2.76061 4.17476 2.26896 4.98357 2.08208 5.88433C1.8952 6.78509 2.02452 7.72273 2.44824 8.53928C2.87196 9.35583 3.56419 10.0014 4.40828 10.3671C5.25238 10.7329 6.19676 10.7965 7.0823 10.5473C7.96784 10.2981 8.74041 9.75127 9.26985 8.99895C9.79929 8.24663 10.0532 7.33481 9.98888 6.41712C9.92454 5.49944 9.54585 4.63198 8.91661 3.9609L9.52161 4.5609L8.83961 3.8809L8.82761 3.8689C8.45718 3.49619 8.01649 3.20069 7.53105 2.99951C7.04561 2.79833 6.52508 2.69547 5.99961 2.6969Z" fill="#DF0606"/>
</svg>
