<svg width="102" height="43" viewBox="0 0 102 43" fill="none" xmlns="http://www.w3.org/2000/svg">
<rect width="101.842" height="43" fill="#0AAD3B"/>
<path d="M35.0681 13.1542H38.1338V24.7209C38.1338 25.6761 38.4208 26.4332 38.9946 26.9923C39.5763 27.5437 40.3506 27.8193 41.3175 27.8193C42.3787 27.8193 43.2198 27.5592 43.8408 27.0389C44.501 26.4875 44.8313 25.6954 44.8313 24.6627V13.1542H47.8969V24.8956C47.8969 26.736 47.2523 28.1533 45.9632 29.1472C44.7919 30.0557 43.2512 30.5101 41.341 30.5101C39.4073 30.5101 37.898 30.0557 36.8132 29.1472C35.6499 28.1765 35.0681 26.7554 35.0681 24.8839V13.1542ZM37.7565 8.43665C38.2203 8.43665 38.6134 8.59972 38.9357 8.92587C39.2658 9.25202 39.4309 9.64418 39.4309 10.1023C39.4309 10.5605 39.2658 10.9527 38.9357 11.2788C38.6134 11.5972 38.2203 11.7564 37.7565 11.7564C37.2928 11.7564 36.8957 11.5972 36.5656 11.2788C36.2355 10.9527 36.0704 10.5605 36.0704 10.1023C36.0704 9.64418 36.2355 9.25202 36.5656 8.92587C36.8957 8.59972 37.2928 8.43665 37.7565 8.43665ZM45.067 8.43665C45.5309 8.43665 45.9239 8.59972 46.2462 8.92587C46.5763 9.25202 46.7414 9.64418 46.7414 10.1023C46.7414 10.5605 46.5763 10.9527 46.2462 11.2788C45.9239 11.5972 45.5309 11.7564 45.067 11.7564C44.6033 11.7564 44.2063 11.5972 43.8761 11.2788C43.546 10.9527 43.3809 10.5605 43.3809 10.1023C43.3809 9.64418 43.546 9.25202 43.8761 8.92587C44.2063 8.59972 44.6033 8.43665 45.067 8.43665ZM57.088 32.2223C56.7185 33.1853 55.9363 33.9269 54.7414 34.4472C53.7274 34.8898 52.6309 35.1111 51.4517 35.1111V32.5368C53.7235 32.5368 54.8594 31.9738 54.8594 30.8478C54.8594 30.1024 54.5449 28.9609 53.9161 27.4233L49.966 17.7436H53.02L56.463 26.3633L59.5641 17.7436H62.618L57.088 32.2223ZM63.6966 33.4222L65.5596 31.1507C66.5894 32.0826 67.7371 32.5486 69.0026 32.5486C69.6787 32.5486 70.2721 32.4669 70.7832 32.3039C71.5457 32.0554 71.9269 31.671 71.9269 31.1507C71.9269 30.413 71.3176 30.0441 70.0993 30.0441C69.769 30.0441 69.2778 30.083 68.6253 30.1606C67.9729 30.2382 67.4816 30.2771 67.1515 30.2771C65.1234 30.2771 64.1093 29.5588 64.1093 28.1221C64.1093 27.695 64.2901 27.2758 64.6517 26.8642C64.974 26.4914 65.3552 26.2158 65.7954 26.0372C64.3569 25.1131 63.6377 23.8046 63.6377 22.1117C63.6377 20.7294 64.1525 19.5995 65.1823 18.722C66.1571 17.8989 67.3558 17.4873 68.7787 17.4873C69.9106 17.4873 70.8578 17.697 71.6203 18.1163L72.7758 16.7884L74.8157 18.6172L73.4125 19.6306C73.8999 20.3605 74.1436 21.2225 74.1436 22.2165C74.1436 23.6066 73.7191 24.7364 72.8702 25.6062C72.029 26.4682 70.9089 26.8992 69.5096 26.8992C69.211 26.8992 68.928 26.8797 68.6607 26.8409L68.1773 26.7709C68.0201 26.7709 67.7843 26.8642 67.4698 27.0505C67.1554 27.2369 66.9981 27.4 66.9981 27.5398C66.9981 27.8504 67.2694 28.0057 67.8117 28.0057C68.1183 28.0057 68.5663 27.9474 69.156 27.831C69.7533 27.7145 70.2053 27.6563 70.5119 27.6563C73.3811 27.6563 74.8157 28.7939 74.8157 31.0692C74.8157 32.4282 74.1475 33.4764 72.8112 34.2142C71.7265 34.8122 70.4372 35.1111 68.9437 35.1111C67.01 35.1111 65.261 34.5481 63.6966 33.4222ZM66.6445 22.1234C66.6445 22.8455 66.841 23.428 67.234 23.8706C67.6428 24.3365 68.2088 24.5695 68.9319 24.5695C70.3861 24.5695 71.1133 23.7541 71.1133 22.1234C71.1133 21.4788 70.9089 20.943 70.5001 20.5159C70.0993 20.0888 69.5765 19.8753 68.9319 19.8753C68.2558 19.8753 67.7057 20.0849 67.2812 20.5043C66.8567 20.9158 66.6445 21.4555 66.6445 22.1234ZM76.1774 23.9521C76.1774 22.0729 76.708 20.543 77.7692 19.3627C78.8775 18.128 80.3711 17.5106 82.2498 17.5106C84.215 17.5106 85.7282 18.1086 86.7894 19.3044C87.8034 20.4383 88.3104 21.9875 88.3104 23.9521C88.3104 25.9012 87.7995 27.4544 86.7776 28.6114C85.7007 29.8384 84.1914 30.4518 82.2498 30.4518C80.2925 30.4518 78.7754 29.8422 77.6984 28.623C76.6844 27.466 76.1774 25.909 76.1774 23.9521ZM79.243 23.9521C79.243 26.701 80.2453 28.0756 82.2498 28.0756C83.3189 28.0756 84.1089 27.629 84.6199 26.736C85.0364 26.0138 85.2448 25.0858 85.2448 23.9521C85.2448 21.242 84.2465 19.8869 82.2498 19.8869C81.1964 19.8869 80.4065 20.3256 79.8797 21.2031C79.4553 21.9253 79.243 22.8416 79.243 23.9521ZM78.8067 12.7465C79.2706 12.7465 79.6636 12.9096 79.9859 13.2357C80.316 13.5619 80.4811 13.954 80.4811 14.4122C80.4811 14.8704 80.316 15.2625 79.9859 15.5887C79.6636 15.907 79.2706 16.0662 78.8067 16.0662C78.343 16.0662 77.9461 15.907 77.6158 15.5887C77.2857 15.2625 77.1207 14.8704 77.1207 14.4122C77.1207 13.954 77.2857 13.5619 77.6158 13.2357C77.9461 12.9096 78.343 12.7465 78.8067 12.7465ZM86.1173 12.7465C86.5811 12.7465 86.9741 12.9096 87.2964 13.2357C87.6266 13.5619 87.7916 13.954 87.7916 14.4122C87.7916 14.8704 87.6266 15.2625 87.2964 15.5887C86.9741 15.907 86.5811 16.0662 86.1173 16.0662C85.6535 16.0662 85.2566 15.907 84.9264 15.5887C84.5962 15.2625 84.4312 14.8704 84.4312 14.4122C84.4312 13.954 84.5962 13.5619 84.9264 13.2357C85.2566 12.9096 85.6535 12.7465 86.1173 12.7465Z" fill="white"/>
<path fill-rule="evenodd" clip-rule="evenodd" d="M26.6421 13.1739C30.2252 16.757 30.2252 22.5663 26.6421 26.1494L20.1544 32.6371L13.6667 26.1494C10.0836 22.5663 10.0836 16.757 13.6667 13.1739C17.2498 9.5908 23.0591 9.5908 26.6421 13.1739ZM25.6496 14.1661C28.6953 17.2116 28.6953 22.1496 25.6496 25.1952C22.604 28.2408 17.6661 28.2408 14.6205 25.1952C11.5749 22.1496 11.5749 17.2116 14.6205 14.1661C17.6661 11.1204 22.604 11.1204 25.6496 14.1661Z" fill="white"/>
<path d="M23.2897 21.7597H17.7298C17.3137 21.7597 16.9581 21.4599 16.8878 21.0498L16.1105 16.5168H15.3711C15.2842 16.5168 15.2009 16.4823 15.1394 16.4209C15.078 16.3594 15.0435 16.276 15.0435 16.1891C15.0435 16.1022 15.078 16.0189 15.1394 15.9574C15.2009 15.896 15.2842 15.8615 15.3711 15.8615H16.1105C16.264 15.8614 16.4127 15.9152 16.5305 16.0136C16.6483 16.1119 16.7279 16.2486 16.7553 16.3996L16.9554 17.4998H23.8259C23.9218 17.4998 24.0166 17.521 24.1036 17.5616C24.1906 17.6023 24.2675 17.6616 24.329 17.7353C24.3906 17.809 24.4351 17.8953 24.4595 17.9881C24.4841 18.081 24.4879 18.178 24.4707 18.2724L23.9345 21.2216C23.907 21.3726 23.8275 21.5092 23.7097 21.6076C23.5918 21.706 23.4432 21.7598 23.2897 21.7597Z" fill="white"/>
<path d="M22.5798 24.381C23.1227 24.381 23.5629 23.9409 23.5629 23.398C23.5629 22.8551 23.1227 22.4149 22.5798 22.4149C22.0369 22.4149 21.5968 22.8551 21.5968 23.398C21.5968 23.9409 22.0369 24.381 22.5798 24.381Z" fill="white"/>
<path d="M18.6478 24.381C19.1907 24.381 19.6309 23.9409 19.6309 23.398C19.6309 22.8551 19.1907 22.4149 18.6478 22.4149C18.1049 22.4149 17.6648 22.8551 17.6648 23.398C17.6648 23.9409 18.1049 24.381 18.6478 24.381Z" fill="white"/>
</svg>
