<svg width="352" height="622" viewBox="0 0 352 622" fill="none" xmlns="http://www.w3.org/2000/svg">
<path d="M265.139 195.173C261.089 194.362 258.052 193.957 256.027 193.957C241.044 193.957 228.086 199.024 217.152 209.157C192.451 198.213 169.368 189.296 147.906 182.405C112.676 171.055 75.8255 161.732 37.3555 154.436C33.7109 144.708 28.2441 136.601 20.9551 130.115C31.0788 82.2848 44.6445 38.913 61.6523 0C112.676 3.64809 159.548 18.4431 202.271 44.3851C244.992 70.3271 279.514 104.376 305.836 146.532C290.853 162.746 277.287 178.959 265.139 195.173ZM-16.7051 116.131C-27.2337 116.131 -37.155 118.968 -46.4688 124.643C-79.2695 100.323 -112.273 79.65 -145.479 62.6256C-95.265 24.5233 -38.9772 3.64809 23.3848 0C7.5918 35.2649 -5.16406 73.9752 -14.8828 116.131H-16.7051ZM-227.48 153.828C-213.712 130.723 -196.299 108.835 -175.242 88.1623C-147.706 102.349 -119.157 119.779 -89.5957 140.452C-141.834 139.236 -187.796 143.694 -227.48 153.828ZM-75.0176 178.149C-74.2077 190.714 -69.8545 201.76 -61.958 211.285C-54.0615 220.811 -44.2415 227.195 -32.498 230.438C-34.9277 258.812 -36.1426 285.767 -36.1426 311.304C-36.1426 329.139 -35.5352 349.609 -34.3203 372.714C-43.2292 375.551 -51.1257 380.415 -58.0098 387.306C-79.877 378.794 -100.934 369.065 -121.182 358.121C-116.727 349.204 -114.5 340.083 -114.5 330.761C-114.5 314.547 -120.169 300.765 -131.508 289.415C-142.846 278.066 -156.615 272.391 -172.812 272.391C-190.63 272.391 -205.411 279.282 -217.154 293.064C-234.162 277.66 -249.348 261.649 -262.711 245.03C-259.066 227.601 -253.6 210.373 -246.311 193.349C-196.907 179.567 -139.809 174.5 -75.0176 178.149ZM-230.518 335.625C-229.303 350.622 -223.127 363.289 -211.991 373.626C-200.855 383.962 -187.796 389.13 -172.812 389.13C-168.358 389.13 -163.499 388.319 -158.234 386.698C-132.318 401.696 -104.579 414.667 -75.0176 425.611V428.043C-75.0176 443.851 -69.652 457.329 -58.9209 468.476C-48.1898 479.623 -34.9277 485.602 -19.1348 486.413C-9.01108 535.864 5.16211 581.06 23.3848 622C-17.11 619.568 -55.3776 609.738 -91.418 592.511C-127.458 575.284 -158.538 552.889 -184.657 525.326C-210.776 497.762 -231.53 465.335 -246.918 428.043C-262.306 390.751 -270 351.838 -270 311.304C-270 310.899 -269.798 305.427 -269.393 294.888C-258.054 309.075 -245.096 322.654 -230.518 335.625ZM34.3184 455.404C63.4746 460.673 92.8333 464.119 122.395 465.74C125.229 473.847 129.684 481.346 135.758 488.237C126.444 530.798 120.775 572.143 118.75 612.272C98.0977 617.541 79.0651 620.784 61.6523 622C42.6198 578.628 27.8392 529.582 17.3105 474.86C24.5996 469.996 30.2689 463.511 34.3184 455.404ZM222.619 484.588C227.883 478.103 231.528 471.212 233.553 463.916C263.114 461.484 291.663 457.633 319.199 452.364C299.762 490.466 273.035 523.501 239.02 551.47C235.375 530.392 229.908 508.098 222.619 484.588ZM123.609 426.827C95.263 425.206 67.3216 421.558 39.7852 415.883C35.3307 395.616 23.7897 381.631 5.16211 373.93C3.54233 350.014 2.73242 329.139 2.73242 311.304C2.73242 284.551 3.94727 256.785 6.37695 228.006C7.18686 228.006 8.19922 227.601 9.41406 226.79C10.6289 225.979 11.4388 225.574 11.8438 225.574C27.6367 240.977 41.4049 255.164 53.1484 268.135C88.3789 307.048 118.345 351.23 143.047 400.682C134.138 407.573 127.659 416.288 123.609 426.827ZM177.67 505.869C178.48 505.869 180.707 505.666 184.352 505.261C191.236 529.987 196.298 554.51 199.537 578.831C187.794 585.722 173.62 592.613 157.018 599.503C159.852 567.887 164.712 536.472 171.596 505.261C174.835 505.666 176.86 505.869 177.67 505.869ZM174.633 360.553C174.228 361.364 173.722 362.58 173.114 364.201C172.507 365.823 172.001 367.039 171.596 367.849C146.084 321.64 116.118 279.687 81.6973 241.99C69.1439 227.803 54.1608 212.4 36.748 195.781C37.153 195.781 37.4567 195.477 37.6592 194.869L37.9629 193.957C71.9785 200.848 104.577 209.36 135.758 219.494C154.79 225.574 175.645 233.681 198.322 243.814C197.512 247.868 197.107 250.908 197.107 252.935C197.107 265.095 200.752 276.242 208.041 286.375C194.678 311.912 183.542 336.638 174.633 360.553ZM203.182 395.818C208.041 381.631 210.471 374.335 210.471 373.93C218.57 353.662 228.693 331.977 240.842 308.872C246.106 310.493 251.168 311.304 256.027 311.304C269.796 311.304 282.146 306.643 293.08 297.32C312.923 311.101 332.36 326.504 351.393 343.529C348.963 366.633 344.104 388.927 336.814 410.411C303.609 417.301 268.581 422.166 231.73 425.003C226.466 412.032 216.95 402.304 203.182 395.818ZM314.34 252.326C314.34 238.95 309.885 226.79 300.977 215.846C309.48 204.901 317.984 194.97 326.488 186.053C341.066 219.291 349.57 253.543 352 288.807C338.637 278.674 325.678 269.554 313.125 261.447C313.935 257.799 314.34 254.759 314.34 252.326Z" fill="#DF0606" fill-opacity="0.1"/>
</svg>
