<svg width="40" height="42" viewBox="0 0 40 42" fill="none" xmlns="http://www.w3.org/2000/svg">
<g clip-path="url(#clip0_315_124)">
<path d="M20 21.8182C19.9053 21.8751 19.3797 22.1118 18.4233 22.5285C17.4669 22.9451 16.9129 23.2103 16.7614 23.3239C17.4811 24.4035 18.1723 25.3315 18.8352 26.108C18.6648 26.4868 18.4186 27.3675 18.0966 28.7501C17.7746 30.1326 17.429 31.7235 17.0597 33.5228C16.6903 35.322 16.4962 36.2595 16.4773 36.3353C16.4583 36.2785 16.2595 36.2027 15.8807 36.108C15.5019 36.0133 15.0994 35.8381 14.6733 35.5824C14.2472 35.3268 13.9678 34.9716 13.8352 34.5171C13.5322 33.4944 13.2765 31.9603 13.0682 29.9148C12.8598 27.8694 12.6989 26.0465 12.5852 24.4461C12.4716 22.8457 12.3485 21.9603 12.2159 21.7898C12.0833 21.8466 11.785 21.9982 11.321 22.2444C10.857 22.4906 10.3788 22.7084 9.88636 22.8978C9.31818 23.1061 8.54167 23.3902 7.55682 23.7501C6.57197 24.1099 5.79545 24.3987 5.22727 24.6165C4.65909 24.8343 4.02936 25.0948 3.33807 25.3978C2.64678 25.7008 2.08807 26.0086 1.66193 26.3211C1.2358 26.6336 0.909091 26.9508 0.681818 27.2728C0.227273 28.4849 0 33.3334 0 41.8182H40C40 39.697 39.9479 36.9319 39.8438 33.5228C39.7396 30.1137 39.5644 28.0304 39.3182 27.2728C39.0909 26.9508 38.7642 26.6336 38.3381 26.3211C37.9119 26.0086 37.3532 25.7008 36.6619 25.3978C35.9706 25.0948 35.3409 24.8343 34.7727 24.6165C34.2045 24.3987 33.428 24.1099 32.4432 23.7501C31.4583 23.3902 30.6818 23.1061 30.1136 22.8978C29.6212 22.7084 29.143 22.4906 28.679 22.2444C28.215 21.9982 27.9167 21.8466 27.7841 21.7898C27.6515 21.9603 27.5426 22.8457 27.4574 24.4461C27.3722 26.0465 27.2396 27.8694 27.0597 29.9148C26.8797 31.9603 26.6383 33.4944 26.3352 34.5171C26.2027 34.9716 25.9233 35.3268 25.4972 35.5824C25.071 35.8381 24.6686 36.0133 24.2898 36.108C23.911 36.2027 23.7121 36.2785 23.6932 36.3353C22.5189 30.5966 21.6761 27.1876 21.1648 26.108C21.8277 25.3315 22.5189 24.4035 23.2386 23.3239C23.0871 23.2103 22.5331 22.9451 21.5767 22.5285C20.6203 22.1118 20.0947 21.8751 20 21.8182ZM20 1.81824C22.5189 1.81824 24.6638 2.70365 26.4347 4.47449C28.2055 6.24532 29.0909 8.39021 29.0909 10.9091C29.0909 13.4281 28.2055 15.573 26.4347 17.3438C24.6638 19.1146 22.5189 20.0001 20 20.0001C17.4811 20.0001 15.3362 19.1146 13.5653 17.3438C11.7945 15.573 10.9091 13.4281 10.9091 10.9091C10.9091 8.39021 11.7945 6.24532 13.5653 4.47449C15.3362 2.70365 17.4811 1.81824 20 1.81824ZM27.7273 10.966C26.9886 11.1175 25.9328 11.0465 24.5597 10.7529C23.1866 10.4593 22.0265 10.1137 21.0795 9.71596C20.4356 9.43187 19.8201 9.10517 19.233 8.73585C18.6458 8.36653 17.9735 7.90252 17.2159 7.34381C16.4583 6.78509 15.8712 6.37316 15.4545 6.10801C15.7576 8.3618 14.697 9.97165 12.2727 10.9376C12.2917 13.0777 13.054 14.8959 14.5597 16.3921C16.0653 17.8883 17.8788 18.6364 20 18.6364C22.1212 18.6364 23.9347 17.8883 25.4403 16.3921C26.946 14.8959 27.7083 13.0872 27.7273 10.966Z" fill="#DF0606"/>
</g>
<defs>
<clipPath id="clip0_315_124">
<rect width="40" height="41.8182" fill="white"/>
</clipPath>
</defs>
</svg>
