<svg width="40" height="40" viewBox="0 0 40 40" fill="none" xmlns="http://www.w3.org/2000/svg">
<path d="M28.1063 1.25H11.8938C10.6344 1.25 9.375 2.46 9.37563 3.66937L9.375 36.3306C9.375 37.54 10.6344 38.75 11.8938 38.75H28.1063C29.3663 38.75 30.625 37.54 30.625 36.3306V3.66937C30.625 2.46 29.3656 1.25 28.1063 1.25ZM26.7875 3.30063C27.1131 3.30063 27.3781 3.5625 27.3781 3.88687C27.3781 4.21 27.1131 4.47312 26.7875 4.47312C26.4619 4.47312 26.1981 4.21 26.1981 3.88687C26.1983 3.80967 26.2137 3.73326 26.2434 3.662C26.2731 3.59074 26.3166 3.52604 26.3713 3.47159C26.426 3.41715 26.491 3.37402 26.5624 3.34469C26.6338 3.31535 26.7103 3.30038 26.7875 3.30063ZM18.4056 3.61438H21.5944C21.6925 3.61438 21.7706 3.74437 21.7706 3.90625C21.7706 4.06875 21.6925 4.20063 21.5944 4.20063H18.4056C18.3087 4.20063 18.2294 4.06875 18.2294 3.90625C18.2294 3.745 18.3087 3.61438 18.4056 3.61438ZM22.2137 36.5525C22.2136 36.6105 22.202 36.6678 22.1796 36.7213C22.1572 36.7748 22.1245 36.8233 22.0834 36.8641C22.0422 36.905 21.9934 36.9373 21.9397 36.9592C21.8861 36.9811 21.8286 36.9922 21.7706 36.9919H18.2294C18.1714 36.9922 18.1139 36.9811 18.0603 36.9592C18.0066 36.9373 17.9578 36.905 17.9166 36.8641C17.8755 36.8233 17.8428 36.7748 17.8204 36.7213C17.798 36.6678 17.7864 36.6105 17.7863 36.5525V35.6737C17.7863 35.4306 17.9844 35.2344 18.2294 35.2344H21.7706C22.0156 35.2344 22.2137 35.4306 22.2137 35.6737V36.5525ZM28.8544 34.0625H11.1456V5.9375H28.8538V34.0625H28.8544Z" fill="#DF0606"/>
<path d="M12.8708 10.3318H14.8239C14.8881 10.332 14.9516 10.3195 15.0109 10.2951C15.0702 10.2707 15.124 10.2348 15.1694 10.1895C15.2149 10.1442 15.2509 10.0904 15.2754 10.0312C15.3 9.97196 15.3127 9.90847 15.3127 9.84434V7.89122C15.3127 7.76159 15.2612 7.63728 15.1695 7.54562C15.0779 7.45396 14.9536 7.40247 14.8239 7.40247H12.8708C12.8067 7.40247 12.7432 7.41512 12.684 7.43969C12.6247 7.46427 12.5709 7.50029 12.5256 7.54569C12.4804 7.59109 12.4445 7.64498 12.4201 7.70427C12.3956 7.76356 12.3831 7.82709 12.3833 7.89122V9.84434C12.3833 10.1137 12.6014 10.3318 12.8708 10.3318Z" fill="#DF0606"/>
<path d="M16.9719 10.3318H18.925C18.9891 10.332 19.0527 10.3195 19.1119 10.2951C19.1712 10.2707 19.2251 10.2348 19.2705 10.1895C19.3159 10.1442 19.3519 10.0904 19.3765 10.0312C19.4011 9.97196 19.4138 9.90847 19.4138 9.84434V7.89122C19.4138 7.76159 19.3623 7.63728 19.2706 7.54562C19.1789 7.45396 19.0546 7.40247 18.925 7.40247H16.9719C16.9078 7.40247 16.8443 7.41512 16.785 7.43969C16.7258 7.46427 16.672 7.50029 16.6267 7.54569C16.5814 7.59109 16.5456 7.64498 16.5211 7.70427C16.4967 7.76356 16.4842 7.82709 16.4844 7.89122V9.84434C16.4844 10.1137 16.7031 10.3318 16.9719 10.3318Z" fill="#DF0606"/>
<path d="M21.0739 10.3318H23.0271C23.0912 10.332 23.1547 10.3195 23.214 10.2951C23.2733 10.2707 23.3272 10.2348 23.3726 10.1895C23.418 10.1442 23.454 10.0904 23.4786 10.0312C23.5032 9.97196 23.5158 9.90847 23.5158 9.84434V7.89122C23.5158 7.76159 23.4643 7.63728 23.3727 7.54562C23.281 7.45396 23.1567 7.40247 23.0271 7.40247H21.0739C21.0098 7.40247 20.9463 7.41512 20.8871 7.43969C20.8279 7.46427 20.7741 7.50029 20.7288 7.54569C20.6835 7.59109 20.6476 7.64498 20.6232 7.70427C20.5988 7.76356 20.5863 7.82709 20.5864 7.89122V9.84434C20.5864 10.1137 20.8046 10.3318 21.0739 10.3318Z" fill="#DF0606"/>
<path d="M25.175 10.3318H27.1281C27.1923 10.332 27.2558 10.3195 27.3151 10.2951C27.3744 10.2707 27.4282 10.2348 27.4736 10.1895C27.5191 10.1442 27.5551 10.0904 27.5796 10.0312C27.6042 9.97196 27.6169 9.90847 27.6169 9.84434V7.89122C27.6169 7.76159 27.5654 7.63728 27.4737 7.54562C27.3821 7.45396 27.2578 7.40247 27.1281 7.40247H25.175C25.1109 7.40247 25.0474 7.41512 24.9882 7.43969C24.9289 7.46427 24.8751 7.50029 24.8298 7.54569C24.7846 7.59109 24.7487 7.64498 24.7243 7.70427C24.6998 7.76356 24.6873 7.82709 24.6875 7.89122V9.84434C24.6875 10.1137 24.9063 10.3318 25.175 10.3318Z" fill="#DF0606"/>
<path d="M12.8708 32.8907H14.8239C14.8881 32.8908 14.9516 32.8784 15.0109 32.8539C15.0702 32.8295 15.124 32.7936 15.1694 32.7483C15.2148 32.7031 15.2509 32.6493 15.2754 32.59C15.3 32.5308 15.3127 32.4673 15.3127 32.4032V30.4494C15.3127 30.3853 15.3 30.3217 15.2755 30.2625C15.2509 30.2032 15.2149 30.1494 15.1695 30.1041C15.1241 30.0587 15.0702 30.0228 15.0109 29.9983C14.9516 29.9738 14.8881 29.9612 14.8239 29.9613H12.8708C12.8067 29.9613 12.7433 29.9739 12.6841 29.9985C12.6249 30.023 12.5711 30.059 12.5259 30.1043C12.4806 30.1496 12.4447 30.2035 12.4202 30.2627C12.3958 30.3219 12.3832 30.3854 12.3833 30.4494V32.4032C12.3833 32.6719 12.6014 32.8907 12.8708 32.8907Z" fill="#DF0606"/>
<path d="M16.9719 32.8907H18.925C18.9891 32.8908 19.0527 32.8784 19.1119 32.8539C19.1712 32.8295 19.2251 32.7936 19.2705 32.7483C19.3159 32.7031 19.3519 32.6493 19.3765 32.59C19.4011 32.5308 19.4137 32.4673 19.4137 32.4032V30.4494C19.4137 30.3853 19.4011 30.3217 19.3765 30.2625C19.352 30.2032 19.316 30.1494 19.2706 30.1041C19.2252 30.0587 19.1713 30.0228 19.112 29.9983C19.0527 29.9738 18.9892 29.9612 18.925 29.9613H16.9719C16.9078 29.9613 16.8444 29.9739 16.7852 29.9985C16.726 30.023 16.6722 30.059 16.6269 30.1043C16.5817 30.1496 16.5458 30.2035 16.5213 30.2627C16.4968 30.3219 16.4843 30.3854 16.4844 30.4494V32.4032C16.4844 32.6719 16.7031 32.8907 16.9719 32.8907Z" fill="#DF0606"/>
<path d="M21.0739 32.8907H23.027C23.0912 32.8908 23.1547 32.8784 23.214 32.8539C23.2733 32.8295 23.3272 32.7936 23.3726 32.7483C23.418 32.7031 23.454 32.6493 23.4786 32.59C23.5031 32.5308 23.5158 32.4673 23.5158 32.4032V30.4494C23.5158 30.3853 23.5032 30.3217 23.4786 30.2625C23.454 30.2032 23.418 30.1494 23.3726 30.1041C23.3272 30.0587 23.2733 30.0228 23.214 29.9983C23.1547 29.9738 23.0912 29.9612 23.027 29.9613H21.0739C21.0099 29.9613 20.9464 29.9739 20.8872 29.9985C20.828 30.023 20.7743 30.059 20.729 30.1043C20.6837 30.1496 20.6478 30.2035 20.6234 30.2627C20.5989 30.3219 20.5863 30.3854 20.5864 30.4494V32.4032C20.5864 32.6719 20.8046 32.8907 21.0739 32.8907Z" fill="#DF0606"/>
<path d="M25.175 32.8907H27.1281C27.1922 32.8908 27.2558 32.8784 27.3151 32.8539C27.3744 32.8295 27.4282 32.7936 27.4736 32.7483C27.519 32.7031 27.5551 32.6493 27.5796 32.59C27.6042 32.5308 27.6169 32.4673 27.6169 32.4032V30.4494C27.6169 30.3853 27.6042 30.3217 27.5797 30.2625C27.5551 30.2032 27.5191 30.1494 27.4737 30.1041C27.4283 30.0587 27.3744 30.0228 27.3151 29.9983C27.2558 29.9738 27.1923 29.9612 27.1281 29.9613H25.175C25.1109 29.9613 25.0475 29.9739 24.9883 29.9985C24.9291 30.023 24.8753 30.059 24.8301 30.1043C24.7848 30.1496 24.7489 30.2035 24.7244 30.2627C24.7 30.3219 24.6874 30.3854 24.6875 30.4494V32.4032C24.6875 32.6719 24.9062 32.8907 25.175 32.8907Z" fill="#DF0606"/>
<path d="M12.8708 14.0925H14.8239C15.0946 14.0925 15.3127 13.8737 15.3127 13.6037V11.6506C15.3127 11.3818 15.0939 11.1631 14.8239 11.1631H12.8708C12.7415 11.1631 12.6175 11.2144 12.5261 11.3059C12.4347 11.3973 12.3833 11.5213 12.3833 11.6506V13.6037C12.3831 13.6678 12.3956 13.7314 12.4201 13.7907C12.4445 13.8499 12.4804 13.9038 12.5256 13.9492C12.5709 13.9946 12.6247 14.0307 12.684 14.0552C12.7432 14.0798 12.8067 14.0925 12.8708 14.0925Z" fill="#DF0606"/>
<path d="M16.9719 14.0925H18.925C19.1956 14.0925 19.4137 13.8737 19.4137 13.6037V11.6506C19.4137 11.3818 19.195 11.1631 18.925 11.1631H16.9719C16.8426 11.1631 16.7186 11.2144 16.6272 11.3059C16.5357 11.3973 16.4844 11.5213 16.4844 11.6506V13.6037C16.4844 13.8737 16.7031 14.0925 16.9719 14.0925Z" fill="#DF0606"/>
</svg>
