<svg width="40" height="40" viewBox="0 0 40 40" fill="none" xmlns="http://www.w3.org/2000/svg">
<path d="M19.9999 5.005C19.3439 5.005 18.6944 5.1342 18.0884 5.38523C17.4824 5.63625 16.9317 6.00418 16.4679 6.46801C16.0041 6.93184 15.6361 7.48248 15.3851 8.0885C15.1341 8.69452 15.0049 9.34405 15.0049 10C15.0049 10.656 15.1341 11.3055 15.3851 11.9115C15.6361 12.5175 16.0041 13.0682 16.4679 13.532C16.9317 13.9958 17.4824 14.3638 18.0884 14.6148C18.6944 14.8658 19.3439 14.995 19.9999 14.995C21.3246 14.995 22.5951 14.4687 23.5319 13.532C24.4686 12.5953 24.9949 11.3248 24.9949 10C24.9949 8.67525 24.4686 7.40475 23.5319 6.46801C22.5951 5.53126 21.3246 5.005 19.9999 5.005Z" fill="#DF0606"/>
<path d="M31.25 7.5C30.2554 7.5 29.3016 7.89509 28.5983 8.59835C27.8951 9.30161 27.5 10.2554 27.5 11.25C27.5 12.2446 27.8951 13.1984 28.5983 13.9017C29.3016 14.6049 30.2554 15 31.25 15C32.2446 15 33.1984 14.6049 33.9017 13.9017C34.6049 13.1984 35 12.2446 35 11.25C35 10.2554 34.6049 9.30161 33.9017 8.59835C33.1984 7.89509 32.2446 7.5 31.25 7.5Z" fill="#DF0606"/>
<path d="M8.75 7.5C7.75544 7.5 6.80161 7.89509 6.09835 8.59835C5.39509 9.30161 5 10.2554 5 11.25C5 12.2446 5.39509 13.1984 6.09835 13.9017C6.80161 14.6049 7.75544 15 8.75 15C9.74456 15 10.6984 14.6049 11.4017 13.9017C12.1049 13.1984 12.5 12.2446 12.5 11.25C12.5 10.2554 12.1049 9.30161 11.4017 8.59835C10.6984 7.89509 9.74456 7.5 8.75 7.5Z" fill="#DF0606"/>
<path d="M12.5 19.9825C12.5046 19.3225 12.7701 18.6911 13.2384 18.226C13.7067 17.761 14.34 17.5 15 17.5H25C25.663 17.5 26.2989 17.7634 26.7678 18.2322C27.2366 18.7011 27.5 19.337 27.5 20V27.5C27.4998 28.2868 27.3767 29.0687 27.135 29.8175C26.5814 31.5143 25.4411 32.9581 23.9188 33.8897C22.3965 34.8214 20.5919 35.1798 18.8291 34.9007C17.0663 34.6215 15.4607 33.7231 14.3007 32.3667C13.1407 31.0103 12.5023 29.2848 12.5 27.5V20V19.9825Z" fill="#DF0606"/>
<path d="M10 20C10 19.0875 10.2425 18.235 10.67 17.5H5C4.33696 17.5 3.70107 17.7634 3.23223 18.2322C2.76339 18.7011 2.5 19.337 2.5 20V26.25C2.49966 27.2733 2.75057 28.281 3.23068 29.1846C3.7108 30.0882 4.40544 30.8602 5.25361 31.4326C6.10177 32.005 7.07751 32.3605 8.09514 32.4677C9.11277 32.5749 10.1412 32.4306 11.09 32.0475C10.3704 30.6389 9.9968 29.0792 10 27.4975V20Z" fill="#DF0606"/>
<path d="M30.0006 20V27.5C30.0006 29.1375 29.6081 30.6825 28.9106 32.0475C29.8595 32.4306 30.8879 32.5749 31.9055 32.4677C32.9231 32.3605 33.8989 32.005 34.747 31.4326C35.5952 30.8602 36.2898 30.0882 36.77 29.1846C37.2501 28.281 37.501 27.2733 37.5006 26.25V20C37.5006 19.337 37.2373 18.7011 36.7684 18.2322C36.2996 17.7634 35.6637 17.5 35.0006 17.5H29.3306C29.7556 18.235 30.0006 19.0875 30.0006 20Z" fill="#DF0606"/>
</svg>
