<svg width="40" height="40" viewBox="0 0 40 40" fill="none" xmlns="http://www.w3.org/2000/svg">
<path d="M17.9991 8.99994C16.5011 8.99994 15.1151 9.46994 13.9751 10.2699C13.9011 9.12394 13.6391 8.12994 13.1571 7.24994C14.6795 6.40742 16.3955 5.97674 18.1353 6.00044C19.8752 6.02414 21.5788 6.50142 23.0777 7.3851C24.5766 8.26878 25.819 9.52828 26.6821 11.0391C27.5452 12.55 27.9992 14.2599 27.9991 15.9999H32.5011C34.4331 15.9979 36.0011 17.5659 36.0011 19.4979V30.4979C36.0014 30.9579 35.911 31.4134 35.7351 31.8384C35.5592 32.2634 35.3012 32.6496 34.976 32.9748C34.6507 33.3001 34.2646 33.558 33.8396 33.7339C33.4146 33.9098 32.9591 34.0002 32.4991 33.9999H21.4991C20.5708 33.9999 19.6806 33.6312 19.0242 32.9748C18.3679 32.3184 17.9991 31.4282 17.9991 30.4999V25.9999C16.6079 26.0017 15.2317 25.7122 13.9591 25.1499C13.9851 24.4699 13.9991 23.7559 13.9991 22.9999V22.8759C13.9991 22.5419 13.9991 22.1579 13.9931 21.7419C15.1291 22.5339 16.5091 22.9999 17.9991 22.9999V19.4999C17.9991 17.5679 19.5671 15.9999 21.4991 15.9999H24.9991C24.9991 14.1434 24.2616 12.3629 22.9489 11.0502C21.6361 9.73744 19.8556 8.99994 17.9991 8.99994ZM27.5411 18.9999C27.0564 20.5357 26.2087 21.9321 25.07 23.0708C23.9312 24.2096 22.5349 25.0572 20.9991 25.5419V30.4999C20.9991 30.7759 21.2231 30.9999 21.4991 30.9999H32.4991C32.6317 30.9999 32.7589 30.9473 32.8527 30.8535C32.9464 30.7597 32.9991 30.6325 32.9991 30.4999V19.4999C32.9991 19.3673 32.9464 19.2402 32.8527 19.1464C32.7589 19.0526 32.6317 18.9999 32.4991 18.9999H27.5411ZM24.3251 18.9999H21.4991C21.3665 18.9999 21.2393 19.0526 21.1456 19.1464C21.0518 19.2402 20.9991 19.3673 20.9991 19.4999V22.3259C22.4568 21.6321 23.6312 20.4576 24.3251 18.9999Z" fill="#DF0606"/>
<path d="M9.16 4.24992C9.32634 4.39487 9.44007 4.59076 9.48348 4.80709C9.52689 5.02341 9.49754 5.24802 9.4 5.44592C9.38307 5.50443 9.37432 5.56501 9.374 5.62592C9.374 5.75192 9.406 5.99192 9.708 6.29192C9.854 6.43792 9.966 6.54192 10.088 6.65592C10.188 6.74792 10.294 6.84392 10.428 6.97592C10.688 7.22392 10.962 7.51592 11.208 7.88192C11.718 8.64792 12 9.60592 12 10.9999C12 12.7059 11.368 14.1599 10.382 15.0519L10.51 15.1999C11.07 15.8879 11.396 16.7799 11.6 17.6599C12 19.3999 12 21.4919 12 22.9499V22.9999C12 28.5739 11.242 31.7359 10.408 33.5439C9.988 34.4539 9.542 35.0339 9.156 35.3979C8.99907 35.5485 8.82603 35.6813 8.64 35.7939C8.55482 35.8452 8.4659 35.89 8.374 35.9279C8.374 35.9279 8.148 35.9999 8 35.9999C7.852 35.9999 7.626 35.9279 7.626 35.9279C7.5331 35.8922 7.44399 35.8473 7.36 35.7939C7.17398 35.6813 7.00093 35.5485 6.844 35.3979C6.458 35.0319 6.012 34.4539 5.592 33.5439C4.758 31.7359 4 28.5739 4 22.9999V22.9499C4 21.4899 4 19.3999 4.4 17.6599C4.604 16.7799 4.93 15.8879 5.49 15.1999C5.53 15.1499 5.574 15.0999 5.618 15.0519C4.632 14.1599 4 12.7059 4 10.9999C4 10.3479 4.174 9.56992 4.414 8.85192C4.654 8.13192 4.99 7.38792 5.378 6.78792C5.84 6.00792 6.49 5.35392 6.994 4.91392C7.27032 4.67091 7.55868 4.44196 7.858 4.22792L7.946 4.16792C8.12939 4.04567 8.34803 3.98744 8.56794 4.00227C8.78784 4.0171 8.99668 4.10416 9.162 4.24992H9.16Z" fill="#DF0606"/>
</svg>
