<svg width="40" height="40" viewBox="0 0 40 40" fill="none" xmlns="http://www.w3.org/2000/svg">
<path d="M34.4141 12.5513C34.1536 12.4992 33.9583 12.4731 33.8281 12.4731C32.8646 12.4731 32.0312 12.799 31.3281 13.4506C29.7396 12.7468 28.2552 12.1733 26.875 11.7302C24.6094 11.0003 22.2396 10.4008 19.7656 9.93157C19.5312 9.30596 19.1797 8.78462 18.7109 8.36755C19.362 5.29163 20.2344 2.50244 21.3281 0C24.6094 0.234604 27.6237 1.18605 30.3711 2.85435C33.1185 4.52265 35.3385 6.71228 37.0312 9.42326C36.0677 10.466 35.1953 11.5086 34.4141 12.5513ZM16.2891 7.46823C15.612 7.46823 14.974 7.6507 14.375 8.01564C12.2656 6.45161 10.1432 5.12219 8.00781 4.02737C11.237 1.57706 14.8568 0.234604 18.8672 0C17.8516 2.26784 17.0312 4.75725 16.4062 7.46823H16.2891ZM2.73438 9.89247C3.61979 8.40665 4.73958 6.99902 6.09375 5.6696C7.86458 6.58195 9.70052 7.70283 11.6016 9.03226C8.24219 8.95406 5.28646 9.2408 2.73438 9.89247ZM12.5391 11.4565C12.5911 12.2646 12.8711 12.9749 13.3789 13.5875C13.8867 14.2001 14.5182 14.6106 15.2734 14.8192C15.1172 16.6439 15.0391 18.3773 15.0391 20.0196C15.0391 21.1665 15.0781 22.4829 15.1562 23.9687C14.5833 24.1512 14.0755 24.464 13.6328 24.9071C12.2266 24.3597 10.8724 23.7341 9.57031 23.0303C9.85677 22.4568 10 21.8703 10 21.2708C10 20.2281 9.63542 19.3418 8.90625 18.6119C8.17708 17.882 7.29167 17.5171 6.25 17.5171C5.10417 17.5171 4.15365 17.9602 3.39844 18.8465C2.30469 17.856 1.32812 16.8263 0.46875 15.7576C0.703125 14.6367 1.05469 13.5288 1.52344 12.434C4.70052 11.5477 8.3724 11.2219 12.5391 11.4565ZM2.53906 21.5836C2.61719 22.5481 3.01432 23.3627 3.73047 24.0274C4.44661 24.6921 5.28646 25.0244 6.25 25.0244C6.53646 25.0244 6.84896 24.9723 7.1875 24.868C8.85417 25.8325 10.638 26.6667 12.5391 27.3705V27.5269C12.5391 28.5435 12.8841 29.4102 13.5742 30.1271C14.2643 30.8439 15.1172 31.2284 16.1328 31.2805C16.7839 34.4607 17.6953 37.3672 18.8672 40C16.263 39.8436 13.8021 39.2115 11.4844 38.1036C9.16667 36.9958 7.16797 35.5556 5.48828 33.783C3.80859 32.0104 2.47396 29.9251 1.48438 27.5269C0.494792 25.1287 0 22.6263 0 20.0196C0 19.9935 0.0130208 19.6416 0.0390625 18.9638C0.768229 19.8762 1.60156 20.7494 2.53906 21.5836ZM19.5703 29.2864C21.4453 29.6253 23.3333 29.8469 25.2344 29.9511C25.4167 30.4725 25.7031 30.9547 26.0938 31.3979C25.4948 34.1349 25.1302 36.7937 25 39.3744C23.6719 39.7133 22.4479 39.9218 21.3281 40C20.1042 37.2108 19.1536 34.0567 18.4766 30.5376C18.9453 30.2248 19.3099 29.8078 19.5703 29.2864ZM31.6797 31.1632C32.0182 30.7462 32.2526 30.303 32.3828 29.8338C34.2839 29.6774 36.1198 29.4298 37.8906 29.0909C36.6406 31.5412 34.9219 33.6657 32.7344 35.4643C32.5 34.1088 32.1484 32.6751 31.6797 31.1632ZM25.3125 27.4487C23.4896 27.3444 21.6927 27.1098 19.9219 26.7449C19.6354 25.4415 18.8932 24.5422 17.6953 24.0469C17.5911 22.509 17.5391 21.1665 17.5391 20.0196C17.5391 18.2991 17.6172 16.5135 17.7734 14.6628C17.8255 14.6628 17.8906 14.6367 17.9688 14.5846C18.0469 14.5324 18.099 14.5064 18.125 14.5064C19.1406 15.4969 20.026 16.4093 20.7812 17.2434C23.0469 19.7458 24.974 22.5872 26.5625 25.7674C25.9896 26.2105 25.5729 26.7709 25.3125 27.4487ZM28.7891 32.5318C28.8411 32.5318 28.9844 32.5187 29.2188 32.4927C29.6615 34.0828 29.987 35.6598 30.1953 37.2239C29.4401 37.667 28.5286 38.1101 27.4609 38.5533C27.6432 36.52 27.9557 34.4998 28.3984 32.4927C28.6068 32.5187 28.737 32.5318 28.7891 32.5318ZM28.5938 23.1867C28.5677 23.2388 28.5352 23.317 28.4961 23.4213C28.457 23.5256 28.4245 23.6038 28.3984 23.6559C26.7578 20.6843 24.8307 17.9863 22.6172 15.5621C21.8099 14.6497 20.8464 13.6592 19.7266 12.5904C19.7526 12.5904 19.7721 12.5709 19.7852 12.5318L19.8047 12.4731C21.9922 12.9163 24.0885 13.4637 26.0938 14.1153C27.3177 14.5064 28.6589 15.0277 30.1172 15.6794C30.0651 15.94 30.0391 16.1355 30.0391 16.2659C30.0391 17.0479 30.2734 17.7647 30.7422 18.4164C29.8828 20.0587 29.1667 21.6487 28.5938 23.1867ZM30.4297 25.4545C30.7422 24.5422 30.8984 24.073 30.8984 24.0469C31.4193 22.7436 32.0703 21.349 32.8516 19.8631C33.1901 19.9674 33.5156 20.0196 33.8281 20.0196C34.7135 20.0196 35.5078 19.7198 36.2109 19.1202C37.487 20.0065 38.737 20.9971 39.9609 22.0919C39.8047 23.5777 39.4922 25.0114 39.0234 26.393C36.888 26.8361 34.6354 27.1489 32.2656 27.3314C31.9271 26.4972 31.3151 25.8716 30.4297 25.4545ZM37.5781 16.2268C37.5781 15.3666 37.2917 14.5846 36.7188 13.8807C37.2656 13.1769 37.8125 12.5383 38.3594 11.9648C39.2969 14.1023 39.8438 16.305 40 18.5728C39.1406 17.9211 38.3073 17.3346 37.5 16.8133C37.5521 16.5787 37.5781 16.3832 37.5781 16.2268Z" fill="#DF0606"/>
</svg>
