<svg width="450" height="719" viewBox="0 0 450 719" fill="none" xmlns="http://www.w3.org/2000/svg">
<path d="M-163.753 196.099L-50.8376 241.004M-50.8376 241.004L11.4008 327.946L-115.495 346.985L-69.4329 387.747L-35.599 413.66L1.9706 454.782L32.1692 506.049L23.5709 583.071L96.3612 637.684L83.2185 661.674L153.122 553.763L150.915 423.916L90.4819 304.575L35.9214 211.95L-149.105 187.471L-50.8376 241.004Z" stroke="white" stroke-opacity="0.2" stroke-width="3"/>
<path d="M-27.762 250.623L-9.23159 122.488L157.205 134.125L235.649 189.47L292.357 270.965L353.463 413.122L333.055 455.318L257.351 612.489L36.9616 507.288L12.9769 334.561L89.9984 343.159L84.8816 307.874L-27.762 250.623Z" stroke="white" stroke-opacity="0.2" stroke-width="3"/>
<path d="M36.0457 207.234L18.3523 83.6083L161.129 126.011L233.648 192.97L46.0371 212.375L224.313 392.868L40.7858 500.974L36.0457 207.234Z" stroke="white" stroke-opacity="0.2" stroke-width="3"/>
<path d="M242.465 184.294L241.817 370.371L349.001 413.429L327.957 449.617L293.415 595.888L75.7354 611.534L105.078 503.724L98.1132 347.084L220.707 382.806L292.204 268.734L143.643 220.454L158.627 138.51L27.8126 90.8023L71.113 218.495L-112.993 165.039L-33.7993 244.314L-61.7315 252.063M-61.7315 252.063L128.3 463.351L207.028 653.157L64.1034 618.386L60.273 530.116L-23.7893 490.847L12.198 346.046L-97.3354 317.719L-61.7315 252.063Z" stroke="white" stroke-opacity="0.2" stroke-width="3"/>
<path d="M-10.6778 121.019L142.073 223.7M142.073 223.7L226.868 384.399L325.702 452.686L233.85 570.624L107.81 494.57L91.8748 344.375L142.073 223.7Z" stroke="white" stroke-opacity="0.2" stroke-width="3"/>
<circle cx="237.449" cy="189.57" r="14" transform="rotate(-30.5001 237.449 189.57)" fill="#202020"/>
<circle cx="141.135" cy="223.092" r="12" transform="rotate(-30.5001 141.135 223.092)" fill="#202020"/>
<circle cx="19.7981" cy="85.0777" r="9.5" transform="rotate(-30.5001 19.7981 85.0777)" fill="#202020"/>
<circle cx="35.2368" cy="211.773" r="18.5" transform="rotate(-30.5001 35.2368 211.773)" fill="#202020"/>
<circle cx="160.905" cy="132.526" r="14" transform="rotate(-30.5001 160.905 132.526)" fill="#202020"/>
<circle cx="-8.11633" cy="122.411" r="13.5" transform="rotate(-30.5001 -8.11633 122.411)" fill="#202020"/>
<circle cx="291.342" cy="269.241" r="11" transform="rotate(-30.5001 291.342 269.241)" fill="#202020"/>
<circle cx="245.416" cy="370.572" r="15" transform="rotate(-30.5001 245.416 370.572)" fill="#202020"/>
<circle cx="352.424" cy="414.314" r="15" transform="rotate(-30.5001 352.424 414.314)" fill="#202020"/>
<circle cx="326.894" cy="453.725" r="10" transform="rotate(-30.5001 326.894 453.725)" fill="#202020"/>
<circle cx="235.042" cy="571.662" r="11" transform="rotate(-30.5001 235.042 571.662)" fill="#202020"/>
<circle cx="257.327" cy="615.405" r="11" transform="rotate(-30.5001 257.327 615.405)" fill="#202020"/>
<circle cx="291.686" cy="587.041" r="18" transform="rotate(-30.5001 291.686 587.041)" fill="#202020"/>
<circle cx="96.615" cy="638.114" r="11" transform="rotate(-30.5001 96.615 638.114)" fill="#202020"/>
<circle cx="66.4109" cy="619.348" r="9.5" transform="rotate(-30.5001 66.4109 619.348)" fill="#202020"/>
<circle cx="83.4192" cy="658.074" r="8.5" transform="rotate(-30.5001 83.4192 658.074)" fill="#202020"/>
<circle cx="60.2727" cy="530.116" r="8.5" transform="rotate(-30.5001 60.2727 530.116)" fill="#202020"/>
<circle cx="109.256" cy="496.04" r="9" transform="rotate(-30.5001 109.256 496.04)" fill="#202020"/>
<circle cx="154.544" cy="431.063" r="9" transform="rotate(-30.5001 154.544 431.063)" fill="#202020"/>
<circle cx="91.7982" cy="343.26" r="12.5" transform="rotate(-30.5001 91.7982 343.26)" fill="#202020"/>
<circle cx="77.681" cy="222.75" r="12.5" transform="rotate(-30.5001 77.681 222.75)" fill="#202020"/>
<circle cx="36.9613" cy="507.289" r="15" transform="rotate(-30.5001 36.9613 507.289)" fill="#202020"/>
<circle cx="151.523" cy="550.063" r="10" transform="rotate(-30.5001 151.523 550.063)" fill="#202020"/>
</svg>
