<svg width="895" height="450" viewBox="0 0 895 450" fill="none" xmlns="http://www.w3.org/2000/svg">
<g clip-path="url(#clip0_411_1475)">
<rect width="895" height="449.157" fill="white"/>
<rect y="32" width="914" height="385.911" fill="#0AAD3B"/>
<path d="M314.728 150.054H342.241V253.862C342.241 262.434 344.817 269.229 349.967 274.247C355.187 279.195 362.136 281.669 370.814 281.669C380.338 281.669 387.886 279.334 393.46 274.665C399.385 269.717 402.349 262.608 402.349 253.339V150.054H429.862V255.43C429.862 271.947 424.077 284.666 412.508 293.587C401.996 301.74 388.168 305.818 371.025 305.818C353.67 305.818 340.125 301.74 330.389 293.587C319.949 284.875 314.728 272.121 314.728 255.325V150.054ZM338.855 107.716C343.017 107.716 346.545 109.179 349.438 112.107C352.4 115.034 353.882 118.553 353.882 122.665C353.882 126.777 352.4 130.296 349.438 133.223C346.545 136.081 343.017 137.51 338.855 137.51C334.693 137.51 331.13 136.081 328.167 133.223C325.204 130.296 323.722 126.777 323.722 122.665C323.722 118.553 325.204 115.034 328.167 112.107C331.13 109.179 334.693 107.716 338.855 107.716ZM404.465 107.716C408.627 107.716 412.155 109.179 415.047 112.107C418.01 115.034 419.492 118.553 419.492 122.665C419.492 126.777 418.01 130.296 415.047 133.223C412.155 136.081 408.627 137.51 404.465 137.51C400.303 137.51 396.74 136.081 393.776 133.223C390.814 130.296 389.332 126.777 389.332 122.665C389.332 118.553 390.814 115.034 393.776 112.107C396.74 109.179 400.303 107.716 404.465 107.716ZM512.349 321.185C509.033 329.827 502.013 336.483 491.289 341.152C482.189 345.124 472.348 347.111 461.765 347.111V324.007C482.154 324.007 492.348 318.955 492.348 308.849C492.348 302.159 489.526 291.914 483.882 278.115L448.431 191.243H475.84L506.74 268.602L534.571 191.243H561.979L512.349 321.185ZM571.659 331.953L588.379 311.567C597.621 319.931 607.921 324.113 619.279 324.113C625.346 324.113 630.672 323.38 635.259 321.917C642.102 319.687 645.523 316.236 645.523 311.567C645.523 304.946 640.055 301.636 629.121 301.636C626.157 301.636 621.749 301.985 615.893 302.682C610.037 303.378 605.628 303.727 602.665 303.727C584.464 303.727 575.363 297.28 575.363 284.387C575.363 280.554 576.985 276.791 580.231 273.097C583.123 269.752 586.545 267.278 590.495 265.675C577.585 257.381 571.13 245.638 571.13 230.445C571.13 218.039 575.751 207.899 584.992 200.024C593.741 192.637 604.499 188.943 617.269 188.943C627.428 188.943 635.929 190.825 642.772 194.588L653.142 182.671L671.45 199.083L658.856 208.179C663.23 214.729 665.417 222.465 665.417 231.386C665.417 243.861 661.608 254.001 653.989 261.807C646.44 269.543 636.387 273.411 623.829 273.411C621.149 273.411 618.609 273.236 616.21 272.888L611.871 272.26C610.461 272.26 608.344 273.097 605.522 274.77C602.7 276.442 601.289 277.906 601.289 279.16C601.289 281.948 603.724 283.341 608.591 283.341C611.342 283.341 615.363 282.819 620.655 281.774C626.016 280.729 630.073 280.206 632.824 280.206C658.574 280.206 671.45 290.416 671.45 310.836C671.45 323.032 665.453 332.44 653.46 339.061C643.724 344.428 632.154 347.111 618.75 347.111C601.396 347.111 585.699 342.058 571.659 331.953ZM598.115 230.55C598.115 237.031 599.879 242.258 603.406 246.231C607.075 250.412 612.154 252.503 618.644 252.503C631.695 252.503 638.221 245.185 638.221 230.55C638.221 224.765 636.387 219.956 632.718 216.123C629.121 212.29 624.429 210.374 618.644 210.374C612.577 210.374 607.639 212.255 603.829 216.019C600.019 219.712 598.115 224.556 598.115 230.55ZM683.67 246.962C683.67 230.097 688.432 216.367 697.956 205.773C707.902 194.693 721.307 189.152 738.168 189.152C755.805 189.152 769.385 194.518 778.909 205.251C788.01 215.427 792.56 229.33 792.56 246.962C792.56 264.455 787.975 278.394 778.804 288.778C769.139 299.789 755.593 305.295 738.168 305.295C720.602 305.295 706.986 299.824 697.321 288.882C688.22 278.498 683.67 264.525 683.67 246.962ZM711.183 246.962C711.183 271.633 720.178 283.969 738.168 283.969C747.762 283.969 754.853 279.961 759.438 271.947C763.177 265.465 765.047 257.137 765.047 246.962C765.047 222.64 756.087 210.478 738.168 210.478C728.714 210.478 721.625 214.416 716.897 222.291C713.088 228.772 711.183 236.996 711.183 246.962ZM707.268 146.395C711.431 146.395 714.958 147.859 717.85 150.786C720.813 153.713 722.295 157.233 722.295 161.345C722.295 165.456 720.813 168.976 717.85 171.903C714.958 174.76 711.431 176.189 707.268 176.189C703.106 176.189 699.543 174.76 696.58 171.903C693.617 168.976 692.136 165.456 692.136 161.345C692.136 157.233 693.617 153.713 696.58 150.786C699.543 147.859 703.106 146.395 707.268 146.395ZM772.878 146.395C777.04 146.395 780.567 147.859 783.459 150.786C786.423 153.713 787.904 157.233 787.904 161.345C787.904 165.456 786.423 168.976 783.459 171.903C780.567 174.76 777.04 176.189 772.878 176.189C768.715 176.189 765.153 174.76 762.19 171.903C759.226 168.976 757.745 165.456 757.745 161.345C757.745 157.233 759.226 153.713 762.19 150.786C765.153 147.859 768.715 146.395 772.878 146.395Z" fill="white"/>
<path fill-rule="evenodd" clip-rule="evenodd" d="M239.104 150.232C271.261 182.389 271.261 234.526 239.104 266.683L180.879 324.908L122.654 266.683C90.4969 234.526 90.4969 182.389 122.654 150.232C154.811 118.075 206.947 118.075 239.104 150.232ZM230.197 159.137C257.531 186.47 257.531 230.786 230.197 258.12C202.864 285.453 158.548 285.453 131.214 258.12C103.881 230.786 103.881 186.47 131.214 159.137C158.548 131.803 202.864 131.803 230.197 159.137Z" fill="white"/>
<path d="M209.021 227.287H159.123C155.389 227.287 152.197 224.597 151.566 220.916L144.59 180.234H137.954C137.175 180.234 136.426 179.924 135.875 179.373C135.324 178.821 135.014 178.073 135.014 177.293C135.014 176.514 135.324 175.765 135.875 175.214C136.426 174.663 137.175 174.353 137.954 174.353H144.59C145.968 174.352 147.302 174.835 148.359 175.718C149.417 176.601 150.131 177.827 150.377 179.182L152.172 189.057H213.833C214.694 189.057 215.545 189.246 216.326 189.611C217.106 189.976 217.797 190.509 218.349 191.17C218.901 191.831 219.301 192.606 219.52 193.439C219.74 194.272 219.774 195.143 219.62 195.99L214.808 222.458C214.562 223.814 213.848 225.04 212.79 225.922C211.732 226.805 210.398 227.288 209.021 227.287Z" fill="white"/>
<path d="M202.653 250.812C207.526 250.812 211.476 246.863 211.476 241.99C211.476 237.118 207.526 233.167 202.653 233.167C197.781 233.167 193.831 237.118 193.831 241.99C193.831 246.863 197.781 250.812 202.653 250.812Z" fill="white"/>
<path d="M167.359 250.812C172.232 250.812 176.182 246.863 176.182 241.99C176.182 237.118 172.232 233.167 167.359 233.167C162.487 233.167 158.537 237.118 158.537 241.99C158.537 246.863 162.487 250.812 167.359 250.812Z" fill="white"/>
</g>
<defs>
<clipPath id="clip0_411_1475">
<rect width="895" height="449.157" fill="white"/>
</clipPath>
</defs>
</svg>
