<svg width="308" height="598" viewBox="0 0 308 598" fill="none" xmlns="http://www.w3.org/2000/svg">
<path d="M366 586L291.5 490M291.5 490L282 383.5L401 431.5L382 373L366 333.5L354.5 279L354.5 219.5L401 157.5L366 73.5L389.5 59.5L274.5 117L210.5 230L202 363.5L202 471L349 586L291.5 490Z" stroke="#DF0606" stroke-opacity="0.1" stroke-width="3"/>
<path d="M276.5 470L195.5 571L58 476.5L18.5 389L11 290L30.5 136.5L69.5 110.5L214.5 13.5L351 216L284 377L222 330.5L208.5 363.5L276.5 470Z" stroke="#DF0606" stroke-opacity="0.1" stroke-width="3"/>
<path d="M199.5 475L152 590.5L50.5 481.5L22 387L193.5 465.5L131.5 219.5L344.5 219.5L199.5 475Z" stroke="#DF0606" stroke-opacity="0.1" stroke-width="3"/>
<path d="M10 390L105 230L34.5 138.5L71 118L175 9.49998L370.5 106.5L290.5 184.5L217 323L129.5 230L10 292L113.5 409L59 472L147.5 579.5L175 447.5L306.5 587L278.5 478.5L306.5 486M306.5 486L250 207.5L278.5 3.99999L384 106.5L342.5 184.5L395 261L290.5 367.5L370.5 447.5L306.5 486Z" stroke="#DF0606" stroke-opacity="0.1" stroke-width="3"/>
<path d="M196 573L116.5 407M116.5 407L125 225.5L74.5 116.5L213.5 61.5L283.5 191L221 328.5L116.5 407Z" stroke="#DF0606" stroke-opacity="0.1" stroke-width="3"/>
<circle cx="17" cy="388" r="14" transform="rotate(-180 17 388)" fill="#F8CACA"/>
<circle cx="117" cy="408" r="12" transform="rotate(-180 117 408)" fill="#F8CACA"/>
<circle cx="151.5" cy="588.5" r="9.5" transform="rotate(-180 151.5 588.5)" fill="#F8CACA"/>
<circle cx="202.5" cy="471.5" r="18.5" transform="rotate(-180 202.5 471.5)" fill="#F8CACA"/>
<circle cx="54" cy="476" r="14" transform="rotate(-180 54 476)" fill="#F8CACA"/>
<circle cx="194.5" cy="570.5" r="13.5" transform="rotate(-180 194.5 570.5)" fill="#F8CACA"/>
<circle cx="310.5" cy="486.5" r="9.5" transform="rotate(-180 310.5 486.5)" fill="#F8CACA"/>
<circle cx="277.5" cy="468.5" r="8.5" transform="rotate(-180 277.5 468.5)" fill="#F8CACA"/>
<circle cx="11" cy="292" r="11" transform="rotate(-180 11 292)" fill="#F8CACA"/>
<circle cx="102" cy="228" r="15" transform="rotate(-180 102 228)" fill="#F8CACA"/>
<circle cx="32" cy="136" r="15" transform="rotate(-180 32 136)" fill="#F8CACA"/>
<circle cx="74" cy="115" r="10" transform="rotate(-180 74 115)" fill="#F8CACA"/>
<circle cx="213" cy="60" r="11" transform="rotate(-180 213 60)" fill="#F8CACA"/>
<circle cx="216" cy="11" r="11" transform="rotate(-180 216 11)" fill="#F8CACA"/>
<circle cx="172" cy="18" r="18" transform="rotate(-180 172 18)" fill="#F8CACA"/>
<circle cx="283" cy="189" r="9" transform="rotate(-180 283 189)" fill="#F8CACA"/>
<circle cx="211" cy="222" r="9" transform="rotate(-180 211 222)" fill="#F8CACA"/>
<circle cx="220.5" cy="329.5" r="12.5" transform="rotate(-180 220.5 329.5)" fill="#F8CACA"/>
<circle cx="171.5" cy="440.5" r="12.5" transform="rotate(-180 171.5 440.5)" fill="#F8CACA"/>
<circle cx="274" cy="121" r="10" transform="rotate(-180 274 121)" fill="#F8CACA"/>
</svg>
