<svg width="349" height="598" viewBox="0 0 349 598" fill="none" xmlns="http://www.w3.org/2000/svg">
<path d="M-17 12L57.5 108M57.5 108L67 214.5L-52 166.5L-33 225L-17 264.5L-5.5 319V378.5L-52 440.5L-17 524.5L-40.5 538.5L74.5 481L138.5 368L147 234.5V127L0 12L57.5 108Z" stroke="#DF0606" stroke-opacity="0.1" stroke-width="3"/>
<path d="M72.5 128L153.5 27L291 121.5L330.5 209L338 308L318.5 461.5L279.5 487.5L134.5 584.5L-2 382L65 221L127 267.5L140.5 234.5L72.5 128Z" stroke="#DF0606" stroke-opacity="0.1" stroke-width="3"/>
<path d="M149.5 123L197 7.5L298.5 116.5L327 211L155.5 132.5L217.5 378.5H4.5L149.5 123Z" stroke="#DF0606" stroke-opacity="0.1" stroke-width="3"/>
<path d="M339 208L244 368L314.5 459.5L278 480L174 588.5L-21.5 491.5L58.5 413.5L132 275L219.5 368L339 306L235.5 189L290 126L201.5 18.5L174 150.5L42.5 11L70.5 119.5L42.5 112M42.5 112L99 390.5L70.5 594L-35 491.5L6.5 413.5L-46 337L58.5 230.5L-21.5 150.5L42.5 112Z" stroke="#DF0606" stroke-opacity="0.1" stroke-width="3"/>
<path d="M153 25L232.5 191M232.5 191L224 372.5L274.5 481.5L135.5 536.5L65.5 407L128 269.5L232.5 191Z" stroke="#DF0606" stroke-opacity="0.1" stroke-width="3"/>
<circle cx="332" cy="210" r="14" fill="#F8CACA"/>
<circle cx="232" cy="190" r="12" fill="#F8CACA"/>
<circle cx="197.5" cy="9.5" r="9.5" fill="#F8CACA"/>
<circle cx="146.5" cy="126.5" r="18.5" fill="#F8CACA"/>
<circle cx="295" cy="122" r="14" fill="#F8CACA"/>
<circle cx="154.5" cy="27.5" r="13.5" fill="#F8CACA"/>
<circle cx="38.5" cy="111.5" r="9.5" fill="#F8CACA"/>
<circle cx="71.5" cy="129.5" r="8.5" fill="#F8CACA"/>
<circle cx="338" cy="306" r="11" fill="#F8CACA"/>
<circle cx="247" cy="370" r="15" fill="#F8CACA"/>
<circle cx="317" cy="462" r="15" fill="#F8CACA"/>
<circle cx="275" cy="483" r="10" fill="#F8CACA"/>
<circle cx="136" cy="538" r="11" fill="#F8CACA"/>
<circle cx="133" cy="587" r="11" fill="#F8CACA"/>
<circle cx="177" cy="580" r="18" fill="#F8CACA"/>
<circle cx="6.5" cy="413.5" r="8.5" fill="#F8CACA"/>
<circle cx="66" cy="409" r="9" fill="#F8CACA"/>
<circle cx="138" cy="376" r="9" fill="#F8CACA"/>
<circle cx="128.5" cy="268.5" r="12.5" fill="#F8CACA"/>
<circle cx="177.5" cy="157.5" r="12.5" fill="#F8CACA"/>
<circle cx="-2" cy="382" r="15" fill="#F8CACA"/>
<circle cx="75" cy="477" r="10" fill="#F8CACA"/>
</svg>
